<svg width="1728" height="1117" viewBox="0 0 1728 1117" fill="none" xmlns="http://www.w3.org/2000/svg">
<g clip-path="url(#clip0_1_7227)">
<rect width="1728" height="1117" fill="url(#paint0_linear_1_7227)"/>
<path d="M242.287 1167L426.2 983.087H377.312L193.399 1167H242.287Z" fill="black" fill-opacity="0.12"/>
<path d="M327.258 1167L511.171 983.087H462.283L278.37 1167H327.258Z" fill="black" fill-opacity="0.12"/>
<path d="M412.234 1167L596.146 983.087H547.258L363.346 1167H412.234Z" fill="black" fill-opacity="0.12"/>
<path d="M497.207 1167L681.12 983.087H632.231L448.319 1167H497.207Z" fill="black" fill-opacity="0.12"/>
<path d="M582.177 1167L766.09 983.087H717.201L533.289 1167H582.177Z" fill="black" fill-opacity="0.12"/>
<path d="M667.148 1167L851.061 983.087H802.173L618.26 1167H667.148Z" fill="black" fill-opacity="0.12"/>
<path d="M752.121 1167L936.034 983.087H887.146L703.233 1167H752.121Z" fill="black" fill-opacity="0.12"/>
<path d="M-148.22 1167L35.693 983.087H-13.1951L-197.108 1167H-148.22Z" fill="black" fill-opacity="0.12"/>
<path d="M-63.2463 1167L120.666 983.087H71.7781L-112.134 1167H-63.2463Z" fill="black" fill-opacity="0.12"/>
<path d="M1356.84 435.974C1378.22 435.974 1388.92 461.825 1373.81 476.944L989.304 861.446C984.803 865.947 978.699 868.476 972.333 868.476H416.906C395.524 868.476 384.816 842.624 399.935 827.505L784.437 443.003C788.938 438.502 795.043 435.974 801.408 435.974H1356.84ZM1373.81 344.12C1388.93 359.239 1378.22 385.091 1356.84 385.091H801.409C795.044 385.091 788.939 382.562 784.438 378.061L399.936 -6.4406C384.817 -21.5598 395.525 -47.4111 416.907 -47.4111H972.334C978.699 -47.4111 984.804 -44.8826 989.305 -40.3817L1373.81 344.12Z" fill="black" fill-opacity="0.12"/>
<path d="M1682.41 84.6666L1478.71 -118.333C1473.66 -123.369 1477.23 -132 1484.36 -132H1561.95L1727.65 33.1258C1729.15 34.6269 1730 36.6659 1730 38.7924V79C1730 83.4183 1726.42 87 1722 87H1688.06C1685.94 87 1683.91 86.1609 1682.41 84.6666Z" fill="black" fill-opacity="0.12"/>
<path d="M1682.41 116.333L1478.71 319.333C1473.66 324.369 1477.23 333 1484.36 333H1561.95L1727.65 167.874C1729.15 166.373 1730 164.334 1730 162.208V122C1730 117.582 1726.42 114 1722 114H1688.06C1685.94 114 1683.91 114.839 1682.41 116.333Z" fill="black" fill-opacity="0.12"/>
<mask id="path-15-inside-1_1_7227" fill="white">
<path d="M714 494C714 491.791 715.791 490 718 490H1010C1012.21 490 1014 491.791 1014 494V530H714V494Z"/>
</mask>
<path d="M714 494C714 491.791 715.791 490 718 490H1010C1012.21 490 1014 491.791 1014 494V530H714V494Z" fill="#F9FAFC"/>
<path d="M714 490H1014H714ZM1014 531H714V529H1014V531ZM714 530V490V530ZM1014 490V530V490Z" fill="#BFC6D4" mask="url(#path-15-inside-1_1_7227)"/>
<path d="M727.348 515.14C726.667 515.14 726.041 515.019 725.472 514.776C724.903 514.533 724.408 514.188 723.988 513.74C723.568 513.283 723.241 512.746 723.008 512.13C722.784 511.514 722.672 510.837 722.672 510.1C722.672 509.4 722.793 508.751 723.036 508.154C723.288 507.547 723.633 507.015 724.072 506.558C724.511 506.101 725.019 505.746 725.598 505.494C726.177 505.242 726.802 505.116 727.474 505.116C727.95 505.116 728.412 505.191 728.86 505.34C729.317 505.48 729.728 505.681 730.092 505.942C730.465 506.194 730.769 506.483 731.002 506.81L729.994 507.86C729.723 507.589 729.448 507.365 729.168 507.188C728.897 507.001 728.617 506.861 728.328 506.768C728.048 506.675 727.763 506.628 727.474 506.628C727.017 506.628 726.587 506.717 726.186 506.894C725.794 507.062 725.449 507.3 725.15 507.608C724.861 507.916 724.632 508.285 724.464 508.714C724.296 509.134 724.212 509.596 724.212 510.1C724.212 510.632 724.291 511.117 724.45 511.556C724.618 511.985 724.851 512.354 725.15 512.662C725.449 512.97 725.803 513.208 726.214 513.376C726.634 513.535 727.096 513.614 727.6 513.614C727.908 513.614 728.211 513.572 728.51 513.488C728.809 513.404 729.089 513.283 729.35 513.124C729.611 512.965 729.849 512.779 730.064 512.564L730.82 513.796C730.605 514.048 730.311 514.277 729.938 514.482C729.574 514.687 729.163 514.851 728.706 514.972C728.258 515.084 727.805 515.14 727.348 515.14ZM735.814 515.14C735.095 515.14 734.451 514.977 733.882 514.65C733.322 514.314 732.879 513.861 732.552 513.292C732.225 512.713 732.062 512.055 732.062 511.318C732.062 510.581 732.225 509.927 732.552 509.358C732.879 508.779 733.322 508.327 733.882 508C734.451 507.664 735.095 507.496 735.814 507.496C736.523 507.496 737.158 507.664 737.718 508C738.287 508.327 738.735 508.779 739.062 509.358C739.389 509.927 739.552 510.581 739.552 511.318C739.552 512.055 739.389 512.713 739.062 513.292C738.735 513.861 738.287 514.314 737.718 514.65C737.158 514.977 736.523 515.14 735.814 515.14ZM735.814 513.824C736.253 513.824 736.645 513.717 736.99 513.502C737.335 513.278 737.606 512.979 737.802 512.606C737.998 512.223 738.091 511.794 738.082 511.318C738.091 510.833 737.998 510.403 737.802 510.03C737.606 509.647 737.335 509.349 736.99 509.134C736.645 508.919 736.253 508.812 735.814 508.812C735.375 508.812 734.979 508.924 734.624 509.148C734.279 509.363 734.008 509.661 733.812 510.044C733.616 510.417 733.523 510.842 733.532 511.318C733.523 511.794 733.616 512.223 733.812 512.606C734.008 512.979 734.279 513.278 734.624 513.502C734.979 513.717 735.375 513.824 735.814 513.824ZM741.095 515V507.65H742.551V509.218L742.285 509.386C742.36 509.143 742.477 508.91 742.635 508.686C742.803 508.462 743.004 508.266 743.237 508.098C743.48 507.921 743.737 507.781 744.007 507.678C744.287 507.575 744.572 507.524 744.861 507.524C745.281 507.524 745.65 507.594 745.967 507.734C746.285 507.874 746.546 508.084 746.751 508.364C746.957 508.644 747.106 508.994 747.199 509.414L746.975 509.358L747.073 509.12C747.176 508.905 747.316 508.705 747.493 508.518C747.68 508.322 747.89 508.149 748.123 508C748.357 507.851 748.604 507.734 748.865 507.65C749.127 507.566 749.383 507.524 749.635 507.524C750.186 507.524 750.639 507.636 750.993 507.86C751.357 508.084 751.628 508.425 751.805 508.882C751.992 509.339 752.085 509.909 752.085 510.59V515H750.629V510.674C750.629 510.254 750.573 509.913 750.461 509.652C750.359 509.381 750.2 509.181 749.985 509.05C749.771 508.919 749.495 508.854 749.159 508.854C748.898 508.854 748.651 508.901 748.417 508.994C748.193 509.078 747.997 509.199 747.829 509.358C747.661 509.517 747.531 509.703 747.437 509.918C747.344 510.123 747.297 510.352 747.297 510.604V515H745.841V510.646C745.841 510.263 745.785 509.941 745.673 509.68C745.561 509.409 745.398 509.204 745.183 509.064C744.969 508.924 744.707 508.854 744.399 508.854C744.138 508.854 743.895 508.901 743.671 508.994C743.447 509.078 743.251 509.199 743.083 509.358C742.915 509.507 742.785 509.689 742.691 509.904C742.598 510.109 742.551 510.333 742.551 510.576V515H741.095ZM754.016 518.08V507.65H755.472V509.33L755.248 509.204C755.304 508.924 755.462 508.658 755.724 508.406C755.985 508.145 756.302 507.935 756.676 507.776C757.058 507.608 757.45 507.524 757.852 507.524C758.514 507.524 759.102 507.687 759.616 508.014C760.129 508.341 760.535 508.789 760.834 509.358C761.132 509.927 761.282 510.581 761.282 511.318C761.282 512.046 761.132 512.699 760.834 513.278C760.544 513.847 760.143 514.3 759.63 514.636C759.116 514.963 758.538 515.126 757.894 515.126C757.464 515.126 757.049 515.042 756.648 514.874C756.246 514.697 755.906 514.473 755.626 514.202C755.346 513.931 755.173 513.651 755.108 513.362L755.472 513.166V518.08H754.016ZM757.656 513.796C758.085 513.796 758.468 513.689 758.804 513.474C759.14 513.259 759.406 512.965 759.602 512.592C759.798 512.219 759.896 511.794 759.896 511.318C759.896 510.842 759.798 510.422 759.602 510.058C759.415 509.685 759.154 509.391 758.818 509.176C758.482 508.961 758.094 508.854 757.656 508.854C757.217 508.854 756.83 508.961 756.494 509.176C756.158 509.381 755.892 509.671 755.696 510.044C755.5 510.417 755.402 510.842 755.402 511.318C755.402 511.794 755.5 512.219 755.696 512.592C755.892 512.965 756.158 513.259 756.494 513.474C756.83 513.689 757.217 513.796 757.656 513.796ZM765.676 515.14C765.069 515.14 764.514 514.972 764.01 514.636C763.515 514.3 763.119 513.843 762.82 513.264C762.521 512.685 762.372 512.032 762.372 511.304C762.372 510.567 762.521 509.913 762.82 509.344C763.128 508.765 763.539 508.313 764.052 507.986C764.575 507.659 765.158 507.496 765.802 507.496C766.185 507.496 766.535 507.552 766.852 507.664C767.169 507.776 767.445 507.935 767.678 508.14C767.921 508.336 768.117 508.565 768.266 508.826C768.425 509.087 768.523 509.367 768.56 509.666L768.238 509.554V507.65H769.694V515H768.238V513.25L768.574 513.152C768.518 513.404 768.401 513.651 768.224 513.894C768.056 514.127 767.837 514.337 767.566 514.524C767.305 514.711 767.011 514.86 766.684 514.972C766.367 515.084 766.031 515.14 765.676 515.14ZM766.054 513.81C766.493 513.81 766.88 513.703 767.216 513.488C767.552 513.273 767.813 512.979 768 512.606C768.196 512.223 768.294 511.789 768.294 511.304C768.294 510.828 768.196 510.403 768 510.03C767.813 509.657 767.552 509.363 767.216 509.148C766.88 508.933 766.493 508.826 766.054 508.826C765.625 508.826 765.242 508.933 764.906 509.148C764.579 509.363 764.318 509.657 764.122 510.03C763.935 510.403 763.842 510.828 763.842 511.304C763.842 511.789 763.935 512.223 764.122 512.606C764.318 512.979 764.579 513.273 764.906 513.488C765.242 513.703 765.625 513.81 766.054 513.81ZM771.707 515V507.65H773.149V509.162L772.897 509.33C772.991 509.003 773.173 508.705 773.443 508.434C773.714 508.154 774.036 507.93 774.409 507.762C774.783 507.585 775.165 507.496 775.557 507.496C776.117 507.496 776.584 507.608 776.957 507.832C777.331 508.047 777.611 508.378 777.797 508.826C777.984 509.274 778.077 509.839 778.077 510.52V515H776.635V510.618C776.635 510.198 776.579 509.853 776.467 509.582C776.355 509.302 776.183 509.101 775.949 508.98C775.716 508.849 775.427 508.793 775.081 508.812C774.801 508.812 774.545 508.859 774.311 508.952C774.078 509.036 773.873 509.157 773.695 509.316C773.527 509.475 773.392 509.661 773.289 509.876C773.196 510.081 773.149 510.305 773.149 510.548V515H772.435C772.314 515 772.193 515 772.071 515C771.95 515 771.829 515 771.707 515ZM781.197 518.22L782.681 514.79L782.695 515.938L779.027 507.65H780.707L783.003 513.054C783.05 513.147 783.106 513.292 783.171 513.488C783.236 513.675 783.292 513.861 783.339 514.048L782.975 514.132C783.05 513.936 783.12 513.74 783.185 513.544C783.26 513.348 783.33 513.152 783.395 512.956L785.313 507.65H787.021L783.997 515L782.751 518.22H781.197ZM792.024 515V507.65H793.466V509.162L793.214 509.33C793.307 509.003 793.489 508.705 793.76 508.434C794.03 508.154 794.352 507.93 794.726 507.762C795.099 507.585 795.482 507.496 795.874 507.496C796.434 507.496 796.9 507.608 797.274 507.832C797.647 508.047 797.927 508.378 798.114 508.826C798.3 509.274 798.394 509.839 798.394 510.52V515H796.952V510.618C796.952 510.198 796.896 509.853 796.784 509.582C796.672 509.302 796.499 509.101 796.266 508.98C796.032 508.849 795.743 508.793 795.398 508.812C795.118 508.812 794.861 508.859 794.628 508.952C794.394 509.036 794.189 509.157 794.012 509.316C793.844 509.475 793.708 509.661 793.606 509.876C793.512 510.081 793.466 510.305 793.466 510.548V515H792.752C792.63 515 792.509 515 792.388 515C792.266 515 792.145 515 792.024 515ZM803.178 515.14C802.571 515.14 802.016 514.972 801.512 514.636C801.017 514.3 800.62 513.843 800.322 513.264C800.023 512.685 799.874 512.032 799.874 511.304C799.874 510.567 800.023 509.913 800.322 509.344C800.63 508.765 801.04 508.313 801.554 507.986C802.076 507.659 802.66 507.496 803.304 507.496C803.686 507.496 804.036 507.552 804.354 507.664C804.671 507.776 804.946 507.935 805.18 508.14C805.422 508.336 805.618 508.565 805.768 508.826C805.926 509.087 806.024 509.367 806.062 509.666L805.74 509.554V507.65H807.196V515H805.74V513.25L806.076 513.152C806.02 513.404 805.903 513.651 805.726 513.894C805.558 514.127 805.338 514.337 805.068 514.524C804.806 514.711 804.512 514.86 804.186 514.972C803.868 515.084 803.532 515.14 803.178 515.14ZM803.556 513.81C803.994 513.81 804.382 513.703 804.718 513.488C805.054 513.273 805.315 512.979 805.502 512.606C805.698 512.223 805.796 511.789 805.796 511.304C805.796 510.828 805.698 510.403 805.502 510.03C805.315 509.657 805.054 509.363 804.718 509.148C804.382 508.933 803.994 508.826 803.556 508.826C803.126 508.826 802.744 508.933 802.408 509.148C802.081 509.363 801.82 509.657 801.624 510.03C801.437 510.403 801.344 510.828 801.344 511.304C801.344 511.789 801.437 512.223 801.624 512.606C801.82 512.979 802.081 513.273 802.408 513.488C802.744 513.703 803.126 513.81 803.556 513.81ZM809.181 515V507.65H810.637V509.218L810.371 509.386C810.446 509.143 810.563 508.91 810.721 508.686C810.889 508.462 811.09 508.266 811.323 508.098C811.566 507.921 811.823 507.781 812.093 507.678C812.373 507.575 812.658 507.524 812.947 507.524C813.367 507.524 813.736 507.594 814.053 507.734C814.371 507.874 814.632 508.084 814.837 508.364C815.043 508.644 815.192 508.994 815.285 509.414L815.061 509.358L815.159 509.12C815.262 508.905 815.402 508.705 815.579 508.518C815.766 508.322 815.976 508.149 816.209 508C816.443 507.851 816.69 507.734 816.951 507.65C817.213 507.566 817.469 507.524 817.721 507.524C818.272 507.524 818.725 507.636 819.079 507.86C819.443 508.084 819.714 508.425 819.891 508.882C820.078 509.339 820.171 509.909 820.171 510.59V515H818.715V510.674C818.715 510.254 818.659 509.913 818.547 509.652C818.445 509.381 818.286 509.181 818.071 509.05C817.857 508.919 817.581 508.854 817.245 508.854C816.984 508.854 816.737 508.901 816.503 508.994C816.279 509.078 816.083 509.199 815.915 509.358C815.747 509.517 815.617 509.703 815.523 509.918C815.43 510.123 815.383 510.352 815.383 510.604V515H813.927V510.646C813.927 510.263 813.871 509.941 813.759 509.68C813.647 509.409 813.484 509.204 813.269 509.064C813.055 508.924 812.793 508.854 812.485 508.854C812.224 508.854 811.981 508.901 811.757 508.994C811.533 509.078 811.337 509.199 811.169 509.358C811.001 509.507 810.871 509.689 810.777 509.904C810.684 510.109 810.637 510.333 810.637 510.576V515H809.181ZM825.532 515.14C824.776 515.14 824.104 514.981 823.516 514.664C822.937 514.337 822.48 513.894 822.144 513.334C821.817 512.774 821.654 512.13 821.654 511.402C821.654 510.823 821.747 510.296 821.934 509.82C822.12 509.344 822.377 508.933 822.704 508.588C823.04 508.233 823.436 507.963 823.894 507.776C824.36 507.58 824.864 507.482 825.406 507.482C825.882 507.482 826.325 507.575 826.736 507.762C827.146 507.939 827.501 508.187 827.8 508.504C828.108 508.821 828.341 509.199 828.5 509.638C828.668 510.067 828.747 510.539 828.738 511.052L828.724 511.668H822.718L822.396 510.52H827.478L827.268 510.758V510.422C827.24 510.114 827.137 509.839 826.96 509.596C826.782 509.353 826.558 509.162 826.288 509.022C826.017 508.882 825.723 508.812 825.406 508.812C824.902 508.812 824.477 508.91 824.132 509.106C823.786 509.293 823.525 509.573 823.348 509.946C823.17 510.31 823.082 510.763 823.082 511.304C823.082 511.817 823.189 512.265 823.404 512.648C823.618 513.021 823.922 513.311 824.314 513.516C824.706 513.721 825.158 513.824 825.672 513.824C826.036 513.824 826.372 513.763 826.68 513.642C826.997 513.521 827.338 513.301 827.702 512.984L828.43 514.006C828.206 514.23 827.93 514.426 827.604 514.594C827.286 514.762 826.946 514.897 826.582 515C826.227 515.093 825.877 515.14 825.532 515.14Z" fill="#646D82"/>
<path d="M714 556C714 548.458 714 544.686 716.343 542.343C718.686 540 722.458 540 730 540H747C754.542 540 758.314 540 760.657 542.343C763 544.686 763 548.458 763 556V564C763 571.542 763 575.314 760.657 577.657C758.314 580 754.542 580 747 580H730C722.458 580 718.686 580 716.343 577.657C714 575.314 714 571.542 714 564V556Z" fill="#0A0E15" fill-opacity="0.4"/>
<path d="M723.623 565V555.2H724.981L730.973 563.222L730.749 563.348C730.712 563.115 730.679 562.863 730.651 562.592C730.623 562.312 730.595 562.018 730.567 561.71C730.548 561.393 730.53 561.061 730.511 560.716C730.502 560.361 730.492 559.993 730.483 559.61C730.474 559.227 730.469 558.831 730.469 558.42V555.2H731.981V565H730.595L724.701 557.272L724.855 557.076C724.902 557.645 724.939 558.131 724.967 558.532C725.004 558.924 725.032 559.26 725.051 559.54C725.079 559.811 725.098 560.035 725.107 560.212C725.116 560.38 725.121 560.52 725.121 560.632C725.13 560.744 725.135 560.842 725.135 560.926V565H723.623ZM737.791 565.14C737.035 565.14 736.363 564.981 735.775 564.664C735.196 564.337 734.739 563.894 734.403 563.334C734.076 562.774 733.913 562.13 733.913 561.402C733.913 560.823 734.006 560.296 734.193 559.82C734.379 559.344 734.636 558.933 734.963 558.588C735.299 558.233 735.695 557.963 736.153 557.776C736.619 557.58 737.123 557.482 737.665 557.482C738.141 557.482 738.584 557.575 738.995 557.762C739.405 557.939 739.76 558.187 740.059 558.504C740.367 558.821 740.6 559.199 740.759 559.638C740.927 560.067 741.006 560.539 740.997 561.052L740.983 561.668H734.977L734.655 560.52H739.737L739.527 560.758V560.422C739.499 560.114 739.396 559.839 739.219 559.596C739.041 559.353 738.817 559.162 738.547 559.022C738.276 558.882 737.982 558.812 737.665 558.812C737.161 558.812 736.736 558.91 736.391 559.106C736.045 559.293 735.784 559.573 735.607 559.946C735.429 560.31 735.341 560.763 735.341 561.304C735.341 561.817 735.448 562.265 735.663 562.648C735.877 563.021 736.181 563.311 736.573 563.516C736.965 563.721 737.417 563.824 737.931 563.824C738.295 563.824 738.631 563.763 738.939 563.642C739.256 563.521 739.597 563.301 739.961 562.984L740.689 564.006C740.465 564.23 740.189 564.426 739.863 564.594C739.545 564.762 739.205 564.897 738.841 565C738.486 565.093 738.136 565.14 737.791 565.14ZM747.409 565L745.029 561.906L744.819 561.64L741.725 557.65H743.545L745.883 560.702L746.121 561.01L749.173 565H747.409ZM741.739 565L744.637 561.22L745.491 562.242L743.447 565H741.739ZM746.205 561.444L745.407 560.436L747.213 557.65H748.921L746.205 561.444ZM751.294 565V555.774H752.736V565H751.294ZM749.768 559.05V557.65H754.444V559.05H749.768Z" fill="white"/>
<path d="M574.072 419.525L528 499.985L574.072 585.042" stroke="url(#paint1_linear_1_7227)" stroke-width="0.853178"/>
<path d="M1153.4 419.525L1199.47 499.985L1153.4 585.042" stroke="url(#paint2_linear_1_7227)" stroke-width="0.853178"/>
<path d="M548.906 502.71L658.539 314.585H680.722V690.41H658.539L548.906 502.71Z" fill="url(#paint3_linear_1_7227)"/>
<path d="M1176.01 499.298L1065.95 311.599L1043.34 312.025V689.13H1065.52L1176.01 499.298Z" fill="url(#paint4_linear_1_7227)"/>
<path d="M867.167 428.007H858.816C852.338 435.259 846.543 442.858 846.543 442.858V442.885H846.476V420.061H840.079V460.393H846.476V445.542H846.543C846.543 445.542 852.352 453.141 858.816 460.393H867.167C859.672 451.993 854.707 445.783 853.449 444.207C854.694 442.631 859.672 436.421 867.167 428.021V428.007Z" fill="white"/>
<path d="M738.321 443.245C738.321 452.126 733.851 454.89 727.628 454.89H721.886V425.63H725.459C734.467 425.63 738.335 428.769 738.335 437.463V443.245H738.321ZM745.147 440.467C745.147 426.952 741.092 420.142 725.914 420.142H715.274V460.393H727.855C742.377 460.393 745.147 453.328 745.147 440.481" fill="white"/>
<path d="M785.298 420.048L778.714 420.061L778.74 420.048V460.379H785.285V420.061L785.298 420.048Z" fill="white"/>
<path d="M762.252 433.87C757.353 433.87 755.292 438.09 755.292 442.204H768.114C768.114 438.037 767.27 433.87 762.252 433.87ZM774.163 446.717H755.359V447.679C755.359 451.725 757.366 455.705 763.229 455.705C766.682 455.705 769.76 454.797 772.423 453.475L772.785 458.67C770.429 460.045 766.802 460.967 762.559 460.967C751.611 460.967 748.894 454.57 748.894 445.155C748.894 435.74 752.695 429.223 762.439 429.223C769.693 429.223 774.284 433.015 774.284 443.285C774.284 443.953 774.163 446.731 774.163 446.731" fill="white"/>
<path d="M801.64 461.02C796.139 461.02 793.784 458.122 793.837 452.807L793.891 435.313H788.952V430.011H793.891L793.944 422.345H800.422L800.369 430.011H808.225V435.313H800.369L800.315 451.779C800.315 454.436 801.332 455.705 803.755 455.705C805.629 455.705 807.864 454.864 807.864 454.864L808.225 459.685C808.225 459.685 805.2 461.02 801.64 461.02Z" fill="white"/>
<path d="M823.897 434.097C818.999 434.097 816.938 438.317 816.938 442.431H829.746C829.746 438.264 828.903 434.097 823.884 434.097M835.796 446.944H816.991V447.906C816.991 451.952 818.986 455.932 824.848 455.932C828.301 455.932 831.379 455.024 834.042 453.702L834.417 458.897C832.062 460.286 828.421 461.181 824.192 461.181C813.244 461.181 810.527 454.784 810.527 445.369C810.527 435.954 814.328 429.436 824.071 429.436C831.326 429.436 835.916 433.243 835.916 443.499C835.916 444.167 835.796 446.944 835.796 446.944Z" fill="white"/>
<path d="M870.032 458.015C870.032 456.72 870.968 455.772 872.253 455.772C873.538 455.772 874.448 456.707 874.448 458.002C874.448 459.298 873.511 460.259 872.24 460.259C870.968 460.259 870.032 459.324 870.032 458.029V458.015ZM874.06 458.002C874.06 456.92 873.297 456.119 872.24 456.119C871.183 456.119 870.433 456.88 870.433 458.002C870.433 459.124 871.196 459.885 872.253 459.885C873.311 459.885 874.06 459.124 874.06 458.002ZM872.628 458.99L872.119 458.323H871.852V458.937C871.852 459.084 871.785 459.164 871.638 459.164H871.557C871.423 459.164 871.343 459.057 871.343 458.884V457.107C871.343 456.92 871.45 456.827 871.611 456.827H872.32C872.922 456.827 873.244 457.067 873.244 457.561C873.244 457.935 873.016 458.189 872.615 458.256L873.204 458.977C873.204 458.977 873.096 459.164 872.922 459.164C872.829 459.164 872.695 459.111 872.601 458.977L872.628 458.99ZM871.852 457.935H872.32C872.601 457.935 872.748 457.802 872.748 457.588C872.748 457.348 872.588 457.241 872.293 457.241H871.838V457.935H871.852Z" fill="white"/>
</g>
<rect x="0.5" y="0.5" width="1727" height="1116" stroke="black"/>
<defs>
<linearGradient id="paint0_linear_1_7227" x1="0" y1="0" x2="1728" y2="1117" gradientUnits="userSpaceOnUse">
<stop stop-color="#362C66"/>
<stop offset="1" stop-color="#4C5E9B"/>
</linearGradient>
<linearGradient id="paint1_linear_1_7227" x1="574" y1="420" x2="574" y2="585" gradientUnits="userSpaceOnUse">
<stop stop-color="#13B5EA"/>
<stop offset="1" stop-color="#CB55FF"/>
</linearGradient>
<linearGradient id="paint2_linear_1_7227" x1="1153.47" y1="420" x2="1153.47" y2="585" gradientUnits="userSpaceOnUse">
<stop stop-color="#13B5EA"/>
<stop offset="1" stop-color="#CB55FF"/>
</linearGradient>
<linearGradient id="paint3_linear_1_7227" x1="549.332" y1="503.99" x2="681" y2="503.99" gradientUnits="userSpaceOnUse">
<stop stop-color="#362C66"/>
<stop offset="1" stop-color="#3E4A72" stop-opacity="0"/>
</linearGradient>
<linearGradient id="paint4_linear_1_7227" x1="1175.58" y1="501.864" x2="1043" y2="500" gradientUnits="userSpaceOnUse">
<stop stop-color="#362C66"/>
<stop offset="1" stop-color="#3E4A72" stop-opacity="0"/>
</linearGradient>
<clipPath id="clip0_1_7227">
<rect width="1728" height="1117" fill="white"/>
</clipPath>
</defs>
</svg>
