<svg width="1728" height="1117" viewBox="0 0 1728 1117" fill="none" xmlns="http://www.w3.org/2000/svg">
<g clip-path="url(#clip0_1_2)">
<rect width="1728" height="1117" fill="url(#paint0_linear_1_2)"/>
<path d="M242.287 1167L426.2 983.087H377.311L193.399 1167H242.287Z" fill="black" fill-opacity="0.12"/>
<path d="M327.258 1167L511.171 983.087H462.283L278.37 1167H327.258Z" fill="black" fill-opacity="0.12"/>
<path d="M412.234 1167L596.146 983.087H547.258L363.345 1167H412.234Z" fill="black" fill-opacity="0.12"/>
<path d="M497.207 1167L681.12 983.087H632.231L448.319 1167H497.207Z" fill="black" fill-opacity="0.12"/>
<path d="M582.177 1167L766.09 983.087H717.201L533.289 1167H582.177Z" fill="black" fill-opacity="0.12"/>
<path d="M667.148 1167L851.061 983.087H802.173L618.26 1167H667.148Z" fill="black" fill-opacity="0.12"/>
<path d="M752.122 1167L936.034 983.087H887.146L703.233 1167H752.122Z" fill="black" fill-opacity="0.12"/>
<path d="M-148.22 1167L35.693 983.087H-13.1951L-197.108 1167H-148.22Z" fill="black" fill-opacity="0.12"/>
<path d="M-63.2463 1167L120.666 983.087H71.7782L-112.134 1167H-63.2463Z" fill="black" fill-opacity="0.12"/>
<path d="M1356.84 435.974C1378.22 435.974 1388.92 461.825 1373.81 476.944L989.304 861.446C984.803 865.947 978.699 868.476 972.333 868.476H416.906C395.524 868.476 384.816 842.624 399.935 827.505L784.437 443.003C788.938 438.502 795.043 435.974 801.408 435.974H1356.84ZM1373.81 344.12C1388.93 359.239 1378.22 385.091 1356.84 385.091H801.409C795.044 385.091 788.939 382.562 784.438 378.061L399.936 -6.4406C384.817 -21.5598 395.525 -47.4111 416.907 -47.4111H972.334C978.699 -47.4111 984.804 -44.8826 989.305 -40.3817L1373.81 344.12Z" fill="black" fill-opacity="0.12"/>
<path d="M1682.41 84.6666L1478.71 -118.333C1473.66 -123.369 1477.23 -132 1484.36 -132H1561.95L1727.65 33.1258C1729.15 34.6269 1730 36.6659 1730 38.7924V79C1730 83.4183 1726.42 87 1722 87H1688.06C1685.94 87 1683.91 86.1609 1682.41 84.6666Z" fill="black" fill-opacity="0.12"/>
<path d="M1682.41 116.333L1478.71 319.333C1473.66 324.369 1477.23 333 1484.36 333H1561.95L1727.65 167.874C1729.15 166.373 1730 164.334 1730 162.208V122C1730 117.582 1726.42 114 1722 114H1688.06C1685.94 114 1683.91 114.839 1682.41 116.333Z" fill="black" fill-opacity="0.12"/>
<mask id="path-13-inside-1_1_2" fill="white">
<path d="M611 436C611 433.791 612.791 432 615 432H907C909.209 432 911 433.791 911 436V472H611V436Z"/>
</mask>
<path d="M611 436C611 433.791 612.791 432 615 432H907C909.209 432 911 433.791 911 436V472H611V436Z" fill="#F9FAFC"/>
<path d="M611 432H911H611ZM911 473H611V471H911V473ZM611 472V432V472ZM911 432V472V432Z" fill="#BFC6D4" mask="url(#path-13-inside-1_1_2)"/>
<path d="M624.18 457.084C623.424 457.084 622.747 456.921 622.15 456.594C621.553 456.258 621.081 455.801 620.736 455.222C620.4 454.634 620.232 453.971 620.232 453.234V447.186H621.744V453.108C621.744 453.584 621.856 454.013 622.08 454.396C622.304 454.769 622.598 455.068 622.962 455.292C623.335 455.516 623.741 455.628 624.18 455.628C624.647 455.628 625.067 455.516 625.44 455.292C625.823 455.068 626.126 454.769 626.35 454.396C626.574 454.013 626.686 453.584 626.686 453.108V447.186H628.128V453.234C628.128 453.971 627.955 454.634 627.61 455.222C627.274 455.801 626.807 456.258 626.21 456.594C625.613 456.921 624.936 457.084 624.18 457.084ZM632.821 457.14C632.205 457.14 631.65 457.033 631.155 456.818C630.661 456.603 630.25 456.286 629.923 455.866L630.903 455.026C631.183 455.353 631.487 455.591 631.813 455.74C632.149 455.88 632.527 455.95 632.947 455.95C633.115 455.95 633.269 455.931 633.409 455.894C633.559 455.847 633.685 455.782 633.787 455.698C633.899 455.614 633.983 455.516 634.039 455.404C634.095 455.283 634.123 455.152 634.123 455.012C634.123 454.769 634.035 454.573 633.857 454.424C633.764 454.359 633.615 454.289 633.409 454.214C633.213 454.13 632.957 454.046 632.639 453.962C632.098 453.822 631.655 453.663 631.309 453.486C630.964 453.309 630.698 453.108 630.511 452.884C630.371 452.707 630.269 452.515 630.203 452.31C630.138 452.095 630.105 451.862 630.105 451.61C630.105 451.302 630.171 451.022 630.301 450.77C630.441 450.509 630.628 450.285 630.861 450.098C631.104 449.902 631.384 449.753 631.701 449.65C632.028 449.547 632.373 449.496 632.737 449.496C633.083 449.496 633.423 449.543 633.759 449.636C634.105 449.729 634.422 449.865 634.711 450.042C635.001 450.219 635.243 450.429 635.439 450.672L634.613 451.582C634.436 451.405 634.24 451.251 634.025 451.12C633.82 450.98 633.61 450.873 633.395 450.798C633.181 450.723 632.985 450.686 632.807 450.686C632.611 450.686 632.434 450.705 632.275 450.742C632.117 450.779 631.981 450.835 631.869 450.91C631.767 450.985 631.687 451.078 631.631 451.19C631.575 451.302 631.547 451.428 631.547 451.568C631.557 451.689 631.585 451.806 631.631 451.918C631.687 452.021 631.762 452.109 631.855 452.184C631.958 452.259 632.112 452.338 632.317 452.422C632.523 452.506 632.784 452.585 633.101 452.66C633.568 452.781 633.951 452.917 634.249 453.066C634.557 453.206 634.8 453.369 634.977 453.556C635.164 453.733 635.295 453.939 635.369 454.172C635.444 454.405 635.481 454.667 635.481 454.956C635.481 455.376 635.36 455.754 635.117 456.09C634.884 456.417 634.567 456.673 634.165 456.86C633.764 457.047 633.316 457.14 632.821 457.14ZM640.501 457.14C639.745 457.14 639.073 456.981 638.485 456.664C637.906 456.337 637.449 455.894 637.113 455.334C636.786 454.774 636.623 454.13 636.623 453.402C636.623 452.823 636.716 452.296 636.903 451.82C637.089 451.344 637.346 450.933 637.673 450.588C638.009 450.233 638.405 449.963 638.863 449.776C639.329 449.58 639.833 449.482 640.375 449.482C640.851 449.482 641.294 449.575 641.705 449.762C642.115 449.939 642.47 450.187 642.769 450.504C643.077 450.821 643.31 451.199 643.469 451.638C643.637 452.067 643.716 452.539 643.707 453.052L643.693 453.668H637.687L637.365 452.52H642.447L642.237 452.758V452.422C642.209 452.114 642.106 451.839 641.929 451.596C641.751 451.353 641.527 451.162 641.257 451.022C640.986 450.882 640.692 450.812 640.375 450.812C639.871 450.812 639.446 450.91 639.101 451.106C638.755 451.293 638.494 451.573 638.317 451.946C638.139 452.31 638.051 452.763 638.051 453.304C638.051 453.817 638.158 454.265 638.373 454.648C638.587 455.021 638.891 455.311 639.283 455.516C639.675 455.721 640.127 455.824 640.641 455.824C641.005 455.824 641.341 455.763 641.649 455.642C641.966 455.521 642.307 455.301 642.671 454.984L643.399 456.006C643.175 456.23 642.899 456.426 642.573 456.594C642.255 456.762 641.915 456.897 641.551 457C641.196 457.093 640.846 457.14 640.501 457.14ZM645.274 457V449.65H646.73V451.96L646.59 451.4C646.692 451.045 646.865 450.723 647.108 450.434C647.36 450.145 647.644 449.916 647.962 449.748C648.288 449.58 648.624 449.496 648.97 449.496C649.128 449.496 649.278 449.51 649.418 449.538C649.567 449.566 649.684 449.599 649.768 449.636L649.39 451.204C649.278 451.157 649.152 451.12 649.012 451.092C648.881 451.055 648.75 451.036 648.62 451.036C648.368 451.036 648.125 451.087 647.892 451.19C647.668 451.283 647.467 451.419 647.29 451.596C647.122 451.764 646.986 451.965 646.884 452.198C646.781 452.422 646.73 452.669 646.73 452.94V457H645.274ZM650.92 457V449.65H652.362V451.162L652.11 451.33C652.203 451.003 652.385 450.705 652.656 450.434C652.927 450.154 653.249 449.93 653.622 449.762C653.995 449.585 654.378 449.496 654.77 449.496C655.33 449.496 655.797 449.608 656.17 449.832C656.543 450.047 656.823 450.378 657.01 450.826C657.197 451.274 657.29 451.839 657.29 452.52V457H655.848V452.618C655.848 452.198 655.792 451.853 655.68 451.582C655.568 451.302 655.395 451.101 655.162 450.98C654.929 450.849 654.639 450.793 654.294 450.812C654.014 450.812 653.757 450.859 653.524 450.952C653.291 451.036 653.085 451.157 652.908 451.316C652.74 451.475 652.605 451.661 652.502 451.876C652.409 452.081 652.362 452.305 652.362 452.548V457H651.648C651.527 457 651.405 457 651.284 457C651.163 457 651.041 457 650.92 457ZM662.074 457.14C661.468 457.14 660.912 456.972 660.408 456.636C659.914 456.3 659.517 455.843 659.218 455.264C658.92 454.685 658.77 454.032 658.77 453.304C658.77 452.567 658.92 451.913 659.218 451.344C659.526 450.765 659.937 450.313 660.45 449.986C660.973 449.659 661.556 449.496 662.2 449.496C662.583 449.496 662.933 449.552 663.25 449.664C663.568 449.776 663.843 449.935 664.076 450.14C664.319 450.336 664.515 450.565 664.664 450.826C664.823 451.087 664.921 451.367 664.958 451.666L664.636 451.554V449.65H666.092V457H664.636V455.25L664.972 455.152C664.916 455.404 664.8 455.651 664.622 455.894C664.454 456.127 664.235 456.337 663.964 456.524C663.703 456.711 663.409 456.86 663.082 456.972C662.765 457.084 662.429 457.14 662.074 457.14ZM662.452 455.81C662.891 455.81 663.278 455.703 663.614 455.488C663.95 455.273 664.212 454.979 664.398 454.606C664.594 454.223 664.692 453.789 664.692 453.304C664.692 452.828 664.594 452.403 664.398 452.03C664.212 451.657 663.95 451.363 663.614 451.148C663.278 450.933 662.891 450.826 662.452 450.826C662.023 450.826 661.64 450.933 661.304 451.148C660.978 451.363 660.716 451.657 660.52 452.03C660.334 452.403 660.24 452.828 660.24 453.304C660.24 453.789 660.334 454.223 660.52 454.606C660.716 454.979 660.978 455.273 661.304 455.488C661.64 455.703 662.023 455.81 662.452 455.81ZM668.078 457V449.65H669.534V451.218L669.268 451.386C669.342 451.143 669.459 450.91 669.618 450.686C669.786 450.462 669.986 450.266 670.22 450.098C670.462 449.921 670.719 449.781 670.99 449.678C671.27 449.575 671.554 449.524 671.844 449.524C672.264 449.524 672.632 449.594 672.95 449.734C673.267 449.874 673.528 450.084 673.734 450.364C673.939 450.644 674.088 450.994 674.182 451.414L673.958 451.358L674.056 451.12C674.158 450.905 674.298 450.705 674.476 450.518C674.662 450.322 674.872 450.149 675.106 450C675.339 449.851 675.586 449.734 675.848 449.65C676.109 449.566 676.366 449.524 676.618 449.524C677.168 449.524 677.621 449.636 677.976 449.86C678.34 450.084 678.61 450.425 678.788 450.882C678.974 451.339 679.068 451.909 679.068 452.59V457H677.612V452.674C677.612 452.254 677.556 451.913 677.444 451.652C677.341 451.381 677.182 451.181 676.968 451.05C676.753 450.919 676.478 450.854 676.142 450.854C675.88 450.854 675.633 450.901 675.4 450.994C675.176 451.078 674.98 451.199 674.812 451.358C674.644 451.517 674.513 451.703 674.42 451.918C674.326 452.123 674.28 452.352 674.28 452.604V457H672.824V452.646C672.824 452.263 672.768 451.941 672.656 451.68C672.544 451.409 672.38 451.204 672.166 451.064C671.951 450.924 671.69 450.854 671.382 450.854C671.12 450.854 670.878 450.901 670.654 450.994C670.43 451.078 670.234 451.199 670.066 451.358C669.898 451.507 669.767 451.689 669.674 451.904C669.58 452.109 669.534 452.333 669.534 452.576V457H668.078ZM684.428 457.14C683.672 457.14 683 456.981 682.412 456.664C681.834 456.337 681.376 455.894 681.04 455.334C680.714 454.774 680.55 454.13 680.55 453.402C680.55 452.823 680.644 452.296 680.83 451.82C681.017 451.344 681.274 450.933 681.6 450.588C681.936 450.233 682.333 449.963 682.79 449.776C683.257 449.58 683.761 449.482 684.302 449.482C684.778 449.482 685.222 449.575 685.632 449.762C686.043 449.939 686.398 450.187 686.696 450.504C687.004 450.821 687.238 451.199 687.396 451.638C687.564 452.067 687.644 452.539 687.634 453.052L687.62 453.668H681.614L681.292 452.52H686.374L686.164 452.758V452.422C686.136 452.114 686.034 451.839 685.856 451.596C685.679 451.353 685.455 451.162 685.184 451.022C684.914 450.882 684.62 450.812 684.302 450.812C683.798 450.812 683.374 450.91 683.028 451.106C682.683 451.293 682.422 451.573 682.244 451.946C682.067 452.31 681.978 452.763 681.978 453.304C681.978 453.817 682.086 454.265 682.3 454.648C682.515 455.021 682.818 455.311 683.21 455.516C683.602 455.721 684.055 455.824 684.568 455.824C684.932 455.824 685.268 455.763 685.576 455.642C685.894 455.521 686.234 455.301 686.598 454.984L687.326 456.006C687.102 456.23 686.827 456.426 686.5 456.594C686.183 456.762 685.842 456.897 685.478 457C685.124 457.093 684.774 457.14 684.428 457.14ZM692.369 458.848L698.137 447.2H699.523L693.769 458.848H692.369ZM708.272 457.14C707.516 457.14 706.844 456.981 706.256 456.664C705.677 456.337 705.22 455.894 704.884 455.334C704.557 454.774 704.394 454.13 704.394 453.402C704.394 452.823 704.487 452.296 704.674 451.82C704.861 451.344 705.117 450.933 705.444 450.588C705.78 450.233 706.177 449.963 706.634 449.776C707.101 449.58 707.605 449.482 708.146 449.482C708.622 449.482 709.065 449.575 709.476 449.762C709.887 449.939 710.241 450.187 710.54 450.504C710.848 450.821 711.081 451.199 711.24 451.638C711.408 452.067 711.487 452.539 711.478 453.052L711.464 453.668H705.458L705.136 452.52H710.218L710.008 452.758V452.422C709.98 452.114 709.877 451.839 709.7 451.596C709.523 451.353 709.299 451.162 709.028 451.022C708.757 450.882 708.463 450.812 708.146 450.812C707.642 450.812 707.217 450.91 706.872 451.106C706.527 451.293 706.265 451.573 706.088 451.946C705.911 452.31 705.822 452.763 705.822 453.304C705.822 453.817 705.929 454.265 706.144 454.648C706.359 455.021 706.662 455.311 707.054 455.516C707.446 455.721 707.899 455.824 708.412 455.824C708.776 455.824 709.112 455.763 709.42 455.642C709.737 455.521 710.078 455.301 710.442 454.984L711.17 456.006C710.946 456.23 710.671 456.426 710.344 456.594C710.027 456.762 709.686 456.897 709.322 457C708.967 457.093 708.617 457.14 708.272 457.14ZM713.017 457V449.65H714.473V451.218L714.207 451.386C714.282 451.143 714.398 450.91 714.557 450.686C714.725 450.462 714.926 450.266 715.159 450.098C715.402 449.921 715.658 449.781 715.929 449.678C716.209 449.575 716.494 449.524 716.783 449.524C717.203 449.524 717.572 449.594 717.889 449.734C718.206 449.874 718.468 450.084 718.673 450.364C718.878 450.644 719.028 450.994 719.121 451.414L718.897 451.358L718.995 451.12C719.098 450.905 719.238 450.705 719.415 450.518C719.602 450.322 719.812 450.149 720.045 450C720.278 449.851 720.526 449.734 720.787 449.65C721.048 449.566 721.305 449.524 721.557 449.524C722.108 449.524 722.56 449.636 722.915 449.86C723.279 450.084 723.55 450.425 723.727 450.882C723.914 451.339 724.007 451.909 724.007 452.59V457H722.551V452.674C722.551 452.254 722.495 451.913 722.383 451.652C722.28 451.381 722.122 451.181 721.907 451.05C721.692 450.919 721.417 450.854 721.081 450.854C720.82 450.854 720.572 450.901 720.339 450.994C720.115 451.078 719.919 451.199 719.751 451.358C719.583 451.517 719.452 451.703 719.359 451.918C719.266 452.123 719.219 452.352 719.219 452.604V457H717.763V452.646C717.763 452.263 717.707 451.941 717.595 451.68C717.483 451.409 717.32 451.204 717.105 451.064C716.89 450.924 716.629 450.854 716.321 450.854C716.06 450.854 715.817 450.901 715.593 450.994C715.369 451.078 715.173 451.199 715.005 451.358C714.837 451.507 714.706 451.689 714.613 451.904C714.52 452.109 714.473 452.333 714.473 452.576V457H713.017ZM728.766 457.14C728.159 457.14 727.604 456.972 727.1 456.636C726.605 456.3 726.208 455.843 725.91 455.264C725.611 454.685 725.462 454.032 725.462 453.304C725.462 452.567 725.611 451.913 725.91 451.344C726.218 450.765 726.628 450.313 727.142 449.986C727.664 449.659 728.248 449.496 728.892 449.496C729.274 449.496 729.624 449.552 729.942 449.664C730.259 449.776 730.534 449.935 730.768 450.14C731.01 450.336 731.206 450.565 731.356 450.826C731.514 451.087 731.612 451.367 731.65 451.666L731.328 451.554V449.65H732.784V457H731.328V455.25L731.664 455.152C731.608 455.404 731.491 455.651 731.314 455.894C731.146 456.127 730.926 456.337 730.656 456.524C730.394 456.711 730.1 456.86 729.774 456.972C729.456 457.084 729.12 457.14 728.766 457.14ZM729.144 455.81C729.582 455.81 729.97 455.703 730.306 455.488C730.642 455.273 730.903 454.979 731.09 454.606C731.286 454.223 731.384 453.789 731.384 453.304C731.384 452.828 731.286 452.403 731.09 452.03C730.903 451.657 730.642 451.363 730.306 451.148C729.97 450.933 729.582 450.826 729.144 450.826C728.714 450.826 728.332 450.933 727.996 451.148C727.669 451.363 727.408 451.657 727.212 452.03C727.025 452.403 726.932 452.828 726.932 453.304C726.932 453.789 727.025 454.223 727.212 454.606C727.408 454.979 727.669 455.273 727.996 455.488C728.332 455.703 728.714 455.81 729.144 455.81ZM735.035 457V449.65H736.477V457H735.035ZM735.735 448.026C735.427 448.026 735.189 447.947 735.021 447.788C734.853 447.629 734.769 447.405 734.769 447.116C734.769 446.845 734.853 446.626 735.021 446.458C735.198 446.29 735.436 446.206 735.735 446.206C736.043 446.206 736.281 446.285 736.449 446.444C736.617 446.603 736.701 446.827 736.701 447.116C736.701 447.387 736.612 447.606 736.435 447.774C736.267 447.942 736.034 448.026 735.735 448.026ZM738.722 457V446.64H740.164V457H738.722Z" fill="#646D82"/>
<mask id="path-16-inside-2_1_2" fill="white">
<path d="M611 484C611 481.791 612.791 480 615 480H907C909.209 480 911 481.791 911 484V520H611V484Z"/>
</mask>
<path d="M611 484C611 481.791 612.791 480 615 480H907C909.209 480 911 481.791 911 484V520H611V484Z" fill="#F9FAFC"/>
<path d="M611 480H911H611ZM911 521H611V519H911V521ZM611 520V480V520ZM911 480V520V480Z" fill="#BFC6D4" mask="url(#path-16-inside-2_1_2)"/>
<path d="M620.372 505V495.2H624.362C624.894 495.2 625.375 495.335 625.804 495.606C626.243 495.867 626.593 496.227 626.854 496.684C627.115 497.141 627.246 497.65 627.246 498.21C627.246 498.77 627.115 499.279 626.854 499.736C626.593 500.193 626.243 500.562 625.804 500.842C625.375 501.113 624.894 501.248 624.362 501.248H621.884V505H620.372ZM621.884 499.792H624.334C624.586 499.792 624.815 499.722 625.02 499.582C625.225 499.433 625.389 499.241 625.51 499.008C625.641 498.765 625.706 498.499 625.706 498.21C625.706 497.921 625.641 497.659 625.51 497.426C625.389 497.193 625.225 497.006 625.02 496.866C624.815 496.726 624.586 496.656 624.334 496.656H621.884V499.792ZM631.572 505.14C630.966 505.14 630.41 504.972 629.906 504.636C629.412 504.3 629.015 503.843 628.716 503.264C628.418 502.685 628.268 502.032 628.268 501.304C628.268 500.567 628.418 499.913 628.716 499.344C629.024 498.765 629.435 498.313 629.948 497.986C630.471 497.659 631.054 497.496 631.698 497.496C632.081 497.496 632.431 497.552 632.748 497.664C633.066 497.776 633.341 497.935 633.574 498.14C633.817 498.336 634.013 498.565 634.162 498.826C634.321 499.087 634.419 499.367 634.456 499.666L634.134 499.554V497.65H635.59V505H634.134V503.25L634.47 503.152C634.414 503.404 634.298 503.651 634.12 503.894C633.952 504.127 633.733 504.337 633.462 504.524C633.201 504.711 632.907 504.86 632.58 504.972C632.263 505.084 631.927 505.14 631.572 505.14ZM631.95 503.81C632.389 503.81 632.776 503.703 633.112 503.488C633.448 503.273 633.71 502.979 633.896 502.606C634.092 502.223 634.19 501.789 634.19 501.304C634.19 500.828 634.092 500.403 633.896 500.03C633.71 499.657 633.448 499.363 633.112 499.148C632.776 498.933 632.389 498.826 631.95 498.826C631.521 498.826 631.138 498.933 630.802 499.148C630.476 499.363 630.214 499.657 630.018 500.03C629.832 500.403 629.738 500.828 629.738 501.304C629.738 501.789 629.832 502.223 630.018 502.606C630.214 502.979 630.476 503.273 630.802 503.488C631.138 503.703 631.521 503.81 631.95 503.81ZM640.054 505.14C639.438 505.14 638.882 505.033 638.388 504.818C637.893 504.603 637.482 504.286 637.156 503.866L638.136 503.026C638.416 503.353 638.719 503.591 639.046 503.74C639.382 503.88 639.76 503.95 640.18 503.95C640.348 503.95 640.502 503.931 640.642 503.894C640.791 503.847 640.917 503.782 641.02 503.698C641.132 503.614 641.216 503.516 641.272 503.404C641.328 503.283 641.356 503.152 641.356 503.012C641.356 502.769 641.267 502.573 641.09 502.424C640.996 502.359 640.847 502.289 640.642 502.214C640.446 502.13 640.189 502.046 639.872 501.962C639.33 501.822 638.887 501.663 638.542 501.486C638.196 501.309 637.93 501.108 637.744 500.884C637.604 500.707 637.501 500.515 637.436 500.31C637.37 500.095 637.338 499.862 637.338 499.61C637.338 499.302 637.403 499.022 637.534 498.77C637.674 498.509 637.86 498.285 638.094 498.098C638.336 497.902 638.616 497.753 638.934 497.65C639.26 497.547 639.606 497.496 639.97 497.496C640.315 497.496 640.656 497.543 640.992 497.636C641.337 497.729 641.654 497.865 641.944 498.042C642.233 498.219 642.476 498.429 642.672 498.672L641.846 499.582C641.668 499.405 641.472 499.251 641.258 499.12C641.052 498.98 640.842 498.873 640.628 498.798C640.413 498.723 640.217 498.686 640.04 498.686C639.844 498.686 639.666 498.705 639.508 498.742C639.349 498.779 639.214 498.835 639.102 498.91C638.999 498.985 638.92 499.078 638.864 499.19C638.808 499.302 638.78 499.428 638.78 499.568C638.789 499.689 638.817 499.806 638.864 499.918C638.92 500.021 638.994 500.109 639.088 500.184C639.19 500.259 639.344 500.338 639.55 500.422C639.755 500.506 640.016 500.585 640.334 500.66C640.8 500.781 641.183 500.917 641.482 501.066C641.79 501.206 642.032 501.369 642.21 501.556C642.396 501.733 642.527 501.939 642.602 502.172C642.676 502.405 642.714 502.667 642.714 502.956C642.714 503.376 642.592 503.754 642.35 504.09C642.116 504.417 641.799 504.673 641.398 504.86C640.996 505.047 640.548 505.14 640.054 505.14ZM646.753 505.14C646.137 505.14 645.582 505.033 645.087 504.818C644.592 504.603 644.182 504.286 643.855 503.866L644.835 503.026C645.115 503.353 645.418 503.591 645.745 503.74C646.081 503.88 646.459 503.95 646.879 503.95C647.047 503.95 647.201 503.931 647.341 503.894C647.49 503.847 647.616 503.782 647.719 503.698C647.831 503.614 647.915 503.516 647.971 503.404C648.027 503.283 648.055 503.152 648.055 503.012C648.055 502.769 647.966 502.573 647.789 502.424C647.696 502.359 647.546 502.289 647.341 502.214C647.145 502.13 646.888 502.046 646.571 501.962C646.03 501.822 645.586 501.663 645.241 501.486C644.896 501.309 644.63 501.108 644.443 500.884C644.303 500.707 644.2 500.515 644.135 500.31C644.07 500.095 644.037 499.862 644.037 499.61C644.037 499.302 644.102 499.022 644.233 498.77C644.373 498.509 644.56 498.285 644.793 498.098C645.036 497.902 645.316 497.753 645.633 497.65C645.96 497.547 646.305 497.496 646.669 497.496C647.014 497.496 647.355 497.543 647.691 497.636C648.036 497.729 648.354 497.865 648.643 498.042C648.932 498.219 649.175 498.429 649.371 498.672L648.545 499.582C648.368 499.405 648.172 499.251 647.957 499.12C647.752 498.98 647.542 498.873 647.327 498.798C647.112 498.723 646.916 498.686 646.739 498.686C646.543 498.686 646.366 498.705 646.207 498.742C646.048 498.779 645.913 498.835 645.801 498.91C645.698 498.985 645.619 499.078 645.563 499.19C645.507 499.302 645.479 499.428 645.479 499.568C645.488 499.689 645.516 499.806 645.563 499.918C645.619 500.021 645.694 500.109 645.787 500.184C645.89 500.259 646.044 500.338 646.249 500.422C646.454 500.506 646.716 500.585 647.033 500.66C647.5 500.781 647.882 500.917 648.181 501.066C648.489 501.206 648.732 501.369 648.909 501.556C649.096 501.733 649.226 501.939 649.301 502.172C649.376 502.405 649.413 502.667 649.413 502.956C649.413 503.376 649.292 503.754 649.049 504.09C648.816 504.417 648.498 504.673 648.097 504.86C647.696 505.047 647.248 505.14 646.753 505.14ZM652.808 505L650.302 497.65L651.758 497.636L653.55 503.138L653.228 503.11L655.174 498.812H656.042L658.002 503.124L657.624 503.152L659.43 497.65H660.886L658.408 505H657.414L655.37 500.324L655.692 500.366L653.788 505H652.808ZM665.298 505.14C664.58 505.14 663.936 504.977 663.366 504.65C662.806 504.314 662.363 503.861 662.036 503.292C661.71 502.713 661.546 502.055 661.546 501.318C661.546 500.581 661.71 499.927 662.036 499.358C662.363 498.779 662.806 498.327 663.366 498C663.936 497.664 664.58 497.496 665.298 497.496C666.008 497.496 666.642 497.664 667.202 498C667.772 498.327 668.22 498.779 668.546 499.358C668.873 499.927 669.036 500.581 669.036 501.318C669.036 502.055 668.873 502.713 668.546 503.292C668.22 503.861 667.772 504.314 667.202 504.65C666.642 504.977 666.008 505.14 665.298 505.14ZM665.298 503.824C665.737 503.824 666.129 503.717 666.474 503.502C666.82 503.278 667.09 502.979 667.286 502.606C667.482 502.223 667.576 501.794 667.566 501.318C667.576 500.833 667.482 500.403 667.286 500.03C667.09 499.647 666.82 499.349 666.474 499.134C666.129 498.919 665.737 498.812 665.298 498.812C664.86 498.812 664.463 498.924 664.108 499.148C663.763 499.363 663.492 499.661 663.296 500.044C663.1 500.417 663.007 500.842 663.016 501.318C663.007 501.794 663.1 502.223 663.296 502.606C663.492 502.979 663.763 503.278 664.108 503.502C664.463 503.717 664.86 503.824 665.298 503.824ZM670.608 505V497.65H672.064V499.96L671.924 499.4C672.026 499.045 672.199 498.723 672.442 498.434C672.694 498.145 672.978 497.916 673.296 497.748C673.622 497.58 673.958 497.496 674.304 497.496C674.462 497.496 674.612 497.51 674.752 497.538C674.901 497.566 675.018 497.599 675.102 497.636L674.724 499.204C674.612 499.157 674.486 499.12 674.346 499.092C674.215 499.055 674.084 499.036 673.954 499.036C673.702 499.036 673.459 499.087 673.226 499.19C673.002 499.283 672.801 499.419 672.624 499.596C672.456 499.764 672.32 499.965 672.218 500.198C672.115 500.422 672.064 500.669 672.064 500.94V505H670.608ZM679.006 505.14C678.334 505.14 677.732 504.977 677.2 504.65C676.677 504.314 676.262 503.861 675.954 503.292C675.646 502.713 675.492 502.055 675.492 501.318C675.492 500.581 675.641 499.927 675.94 499.358C676.248 498.779 676.663 498.327 677.186 498C677.708 497.664 678.301 497.496 678.964 497.496C679.328 497.496 679.678 497.557 680.014 497.678C680.359 497.79 680.667 497.949 680.938 498.154C681.208 498.35 681.418 498.569 681.568 498.812C681.726 499.045 681.806 499.283 681.806 499.526L681.386 499.554V494.64H682.828V505H681.386V503.25H681.666C681.666 503.474 681.591 503.698 681.442 503.922C681.292 504.137 681.092 504.337 680.84 504.524C680.597 504.711 680.312 504.86 679.986 504.972C679.668 505.084 679.342 505.14 679.006 505.14ZM679.202 503.894C679.64 503.894 680.028 503.782 680.364 503.558C680.7 503.334 680.961 503.031 681.148 502.648C681.344 502.256 681.442 501.813 681.442 501.318C681.442 500.823 681.344 500.385 681.148 500.002C680.961 499.61 680.7 499.302 680.364 499.078C680.028 498.854 679.64 498.742 679.202 498.742C678.763 498.742 678.376 498.854 678.04 499.078C677.704 499.302 677.438 499.61 677.242 500.002C677.055 500.385 676.962 500.823 676.962 501.318C676.962 501.813 677.055 502.256 677.242 502.648C677.438 503.031 677.704 503.334 678.04 503.558C678.376 503.782 678.763 503.894 679.202 503.894Z" fill="#646D82"/>
<path d="M611 544C611 536.458 611 532.686 613.343 530.343C615.686 528 619.458 528 627 528H650C657.542 528 661.314 528 663.657 530.343C666 532.686 666 536.458 666 544V552C666 559.542 666 563.314 663.657 565.657C661.314 568 657.542 568 650 568H627C619.458 568 615.686 568 613.343 565.657C611 563.314 611 559.542 611 552V544Z" fill="#0A0E15" fill-opacity="0.4"/>
<path d="M620.854 553V543.2H622.366V551.544H626.958V553H620.854ZM631.902 553.14C631.183 553.14 630.539 552.977 629.97 552.65C629.41 552.314 628.967 551.861 628.64 551.292C628.313 550.713 628.15 550.055 628.15 549.318C628.15 548.581 628.313 547.927 628.64 547.358C628.967 546.779 629.41 546.327 629.97 546C630.539 545.664 631.183 545.496 631.902 545.496C632.611 545.496 633.246 545.664 633.806 546C634.375 546.327 634.823 546.779 635.15 547.358C635.477 547.927 635.64 548.581 635.64 549.318C635.64 550.055 635.477 550.713 635.15 551.292C634.823 551.861 634.375 552.314 633.806 552.65C633.246 552.977 632.611 553.14 631.902 553.14ZM631.902 551.824C632.341 551.824 632.733 551.717 633.078 551.502C633.423 551.278 633.694 550.979 633.89 550.606C634.086 550.223 634.179 549.794 634.17 549.318C634.179 548.833 634.086 548.403 633.89 548.03C633.694 547.647 633.423 547.349 633.078 547.134C632.733 546.919 632.341 546.812 631.902 546.812C631.463 546.812 631.067 546.924 630.712 547.148C630.367 547.363 630.096 547.661 629.9 548.044C629.704 548.417 629.611 548.842 629.62 549.318C629.611 549.794 629.704 550.223 629.9 550.606C630.096 550.979 630.367 551.278 630.712 551.502C631.067 551.717 631.463 551.824 631.902 551.824ZM640.501 556.22C639.978 556.22 639.456 556.136 638.933 555.968C638.42 555.809 638.004 555.599 637.687 555.338L638.219 554.218C638.406 554.358 638.625 554.479 638.877 554.582C639.129 554.694 639.395 554.778 639.675 554.834C639.955 554.899 640.23 554.932 640.501 554.932C641.014 554.932 641.444 554.848 641.789 554.68C642.134 554.512 642.396 554.265 642.573 553.938C642.75 553.611 642.839 553.205 642.839 552.72V551.306L642.993 551.404C642.946 551.693 642.792 551.973 642.531 552.244C642.279 552.505 641.962 552.72 641.579 552.888C641.196 553.056 640.804 553.14 640.403 553.14C639.703 553.14 639.078 552.977 638.527 552.65C637.986 552.314 637.556 551.861 637.239 551.292C636.922 550.713 636.763 550.055 636.763 549.318C636.763 548.581 636.917 547.927 637.225 547.358C637.542 546.779 637.972 546.327 638.513 546C639.064 545.664 639.68 545.496 640.361 545.496C640.641 545.496 640.912 545.533 641.173 545.608C641.434 545.673 641.677 545.771 641.901 545.902C642.125 546.023 642.326 546.159 642.503 546.308C642.68 546.457 642.825 546.616 642.937 546.784C643.049 546.952 643.119 547.111 643.147 547.26L642.839 547.372V545.65H644.281V552.552C644.281 553.14 644.192 553.658 644.015 554.106C643.847 554.563 643.6 554.946 643.273 555.254C642.946 555.571 642.55 555.809 642.083 555.968C641.616 556.136 641.089 556.22 640.501 556.22ZM640.557 551.81C641.014 551.81 641.42 551.703 641.775 551.488C642.13 551.273 642.405 550.979 642.601 550.606C642.797 550.233 642.895 549.803 642.895 549.318C642.895 548.833 642.792 548.403 642.587 548.03C642.391 547.647 642.116 547.349 641.761 547.134C641.416 546.919 641.014 546.812 640.557 546.812C640.109 546.812 639.708 546.924 639.353 547.148C639.008 547.363 638.732 547.661 638.527 548.044C638.331 548.417 638.233 548.842 638.233 549.318C638.233 549.794 638.331 550.223 638.527 550.606C638.732 550.979 639.008 551.273 639.353 551.488C639.708 551.703 640.109 551.81 640.557 551.81ZM646.541 553V545.65H647.983V553H646.541ZM647.241 544.026C646.933 544.026 646.695 543.947 646.527 543.788C646.359 543.629 646.275 543.405 646.275 543.116C646.275 542.845 646.359 542.626 646.527 542.458C646.704 542.29 646.942 542.206 647.241 542.206C647.549 542.206 647.787 542.285 647.955 542.444C648.123 542.603 648.207 542.827 648.207 543.116C648.207 543.387 648.118 543.606 647.941 543.774C647.773 543.942 647.54 544.026 647.241 544.026ZM650.199 553V545.65H651.641V547.162L651.389 547.33C651.483 547.003 651.665 546.705 651.935 546.434C652.206 546.154 652.528 545.93 652.901 545.762C653.275 545.585 653.657 545.496 654.049 545.496C654.609 545.496 655.076 545.608 655.449 545.832C655.823 546.047 656.103 546.378 656.289 546.826C656.476 547.274 656.569 547.839 656.569 548.52V553H655.127V548.618C655.127 548.198 655.071 547.853 654.959 547.582C654.847 547.302 654.675 547.101 654.441 546.98C654.208 546.849 653.919 546.793 653.573 546.812C653.293 546.812 653.037 546.859 652.803 546.952C652.57 547.036 652.365 547.157 652.187 547.316C652.019 547.475 651.884 547.661 651.781 547.876C651.688 548.081 651.641 548.305 651.641 548.548V553H650.927C650.806 553 650.685 553 650.563 553C650.442 553 650.321 553 650.199 553Z" fill="white"/>
<path d="M484.072 419.525L438 499.985L484.072 585.042" stroke="url(#paint1_linear_1_2)" stroke-width="0.853178"/>
<path d="M1243.4 419.525L1289.47 499.985L1243.4 585.042" stroke="url(#paint2_linear_1_2)" stroke-width="0.853178"/>
<path d="M458.906 502.71L568.539 314.585H590.722V690.41H568.539L458.906 502.71Z" fill="url(#paint3_linear_1_2)"/>
<path d="M1266.01 499.298L1155.95 311.599L1133.34 312.025V689.13H1155.52L1266.01 499.298Z" fill="url(#paint4_linear_1_2)"/>
<path d="M612.765 598V588.9H614.169V598H612.765ZM613.389 594.126V592.774H618.082V594.126H613.389ZM613.389 590.252V588.9H618.667V590.252H613.389ZM623.125 598.13C622.457 598.13 621.859 597.978 621.331 597.675C620.811 597.363 620.399 596.943 620.096 596.414C619.792 595.877 619.641 595.266 619.641 594.581C619.641 593.896 619.792 593.29 620.096 592.761C620.399 592.224 620.811 591.803 621.331 591.5C621.859 591.188 622.457 591.032 623.125 591.032C623.783 591.032 624.373 591.188 624.893 591.5C625.421 591.803 625.837 592.224 626.141 592.761C626.444 593.29 626.596 593.896 626.596 594.581C626.596 595.266 626.444 595.877 626.141 596.414C625.837 596.943 625.421 597.363 624.893 597.675C624.373 597.978 623.783 598.13 623.125 598.13ZM623.125 596.908C623.532 596.908 623.896 596.808 624.217 596.609C624.537 596.401 624.789 596.124 624.971 595.777C625.153 595.422 625.239 595.023 625.231 594.581C625.239 594.13 625.153 593.732 624.971 593.385C624.789 593.03 624.537 592.752 624.217 592.553C623.896 592.354 623.532 592.254 623.125 592.254C622.717 592.254 622.349 592.358 622.02 592.566C621.699 592.765 621.448 593.043 621.266 593.398C621.084 593.745 620.997 594.139 621.006 594.581C620.997 595.023 621.084 595.422 621.266 595.777C621.448 596.124 621.699 596.401 622.02 596.609C622.349 596.808 622.717 596.908 623.125 596.908ZM628.055 598V591.175H629.407V593.32L629.277 592.8C629.372 592.471 629.532 592.172 629.758 591.903C629.992 591.634 630.256 591.422 630.551 591.266C630.854 591.11 631.166 591.032 631.487 591.032C631.634 591.032 631.773 591.045 631.903 591.071C632.041 591.097 632.15 591.127 632.228 591.162L631.877 592.618C631.773 592.575 631.656 592.54 631.526 592.514C631.404 592.479 631.283 592.462 631.162 592.462C630.928 592.462 630.702 592.51 630.486 592.605C630.278 592.692 630.091 592.817 629.927 592.982C629.771 593.138 629.645 593.324 629.55 593.541C629.454 593.749 629.407 593.979 629.407 594.23V598H628.055ZM636.162 600.99C635.677 600.99 635.192 600.912 634.706 600.756C634.23 600.609 633.844 600.414 633.549 600.171L634.043 599.131C634.217 599.261 634.42 599.374 634.654 599.469C634.888 599.573 635.135 599.651 635.395 599.703C635.655 599.764 635.911 599.794 636.162 599.794C636.639 599.794 637.038 599.716 637.358 599.56C637.679 599.404 637.922 599.174 638.086 598.871C638.251 598.568 638.333 598.191 638.333 597.74V596.427L638.476 596.518C638.433 596.787 638.29 597.047 638.047 597.298C637.813 597.541 637.519 597.74 637.163 597.896C636.808 598.052 636.444 598.13 636.071 598.13C635.421 598.13 634.841 597.978 634.329 597.675C633.827 597.363 633.428 596.943 633.133 596.414C632.839 595.877 632.691 595.266 632.691 594.581C632.691 593.896 632.834 593.29 633.12 592.761C633.415 592.224 633.814 591.803 634.316 591.5C634.828 591.188 635.4 591.032 636.032 591.032C636.292 591.032 636.544 591.067 636.786 591.136C637.029 591.197 637.254 591.288 637.462 591.409C637.67 591.522 637.857 591.647 638.021 591.786C638.186 591.925 638.32 592.072 638.424 592.228C638.528 592.384 638.593 592.531 638.619 592.67L638.333 592.774V591.175H639.672V597.584C639.672 598.13 639.59 598.611 639.425 599.027C639.269 599.452 639.04 599.807 638.736 600.093C638.433 600.388 638.065 600.609 637.631 600.756C637.198 600.912 636.708 600.99 636.162 600.99ZM636.214 596.895C636.639 596.895 637.016 596.795 637.345 596.596C637.675 596.397 637.93 596.124 638.112 595.777C638.294 595.43 638.385 595.032 638.385 594.581C638.385 594.13 638.29 593.732 638.099 593.385C637.917 593.03 637.662 592.752 637.332 592.553C637.012 592.354 636.639 592.254 636.214 592.254C635.798 592.254 635.426 592.358 635.096 592.566C634.776 592.765 634.52 593.043 634.329 593.398C634.147 593.745 634.056 594.139 634.056 594.581C634.056 595.023 634.147 595.422 634.329 595.777C634.52 596.124 634.776 596.397 635.096 596.596C635.426 596.795 635.798 596.895 636.214 596.895ZM644.618 598.13C643.95 598.13 643.352 597.978 642.824 597.675C642.304 597.363 641.892 596.943 641.589 596.414C641.285 595.877 641.134 595.266 641.134 594.581C641.134 593.896 641.285 593.29 641.589 592.761C641.892 592.224 642.304 591.803 642.824 591.5C643.352 591.188 643.95 591.032 644.618 591.032C645.276 591.032 645.866 591.188 646.386 591.5C646.914 591.803 647.33 592.224 647.634 592.761C647.937 593.29 648.089 593.896 648.089 594.581C648.089 595.266 647.937 595.877 647.634 596.414C647.33 596.943 646.914 597.363 646.386 597.675C645.866 597.978 645.276 598.13 644.618 598.13ZM644.618 596.908C645.025 596.908 645.389 596.808 645.71 596.609C646.03 596.401 646.282 596.124 646.464 595.777C646.646 595.422 646.732 595.023 646.724 594.581C646.732 594.13 646.646 593.732 646.464 593.385C646.282 593.03 646.03 592.752 645.71 592.553C645.389 592.354 645.025 592.254 644.618 592.254C644.21 592.254 643.842 592.358 643.513 592.566C643.192 592.765 642.941 593.043 642.759 593.398C642.577 593.745 642.49 594.139 642.499 594.581C642.49 595.023 642.577 595.422 642.759 595.777C642.941 596.124 643.192 596.401 643.513 596.609C643.842 596.808 644.21 596.908 644.618 596.908ZM650.393 598V589.433H651.732V598H650.393ZM648.976 592.475V591.175H653.318V592.475H648.976ZM658.181 600.86V591.175H659.533V592.735L659.325 592.618C659.377 592.358 659.524 592.111 659.767 591.877C660.009 591.634 660.304 591.439 660.651 591.292C661.006 591.136 661.37 591.058 661.743 591.058C662.358 591.058 662.904 591.21 663.381 591.513C663.857 591.816 664.234 592.232 664.512 592.761C664.789 593.29 664.928 593.896 664.928 594.581C664.928 595.257 664.789 595.864 664.512 596.401C664.243 596.93 663.87 597.35 663.394 597.662C662.917 597.965 662.38 598.117 661.782 598.117C661.383 598.117 660.997 598.039 660.625 597.883C660.252 597.718 659.936 597.51 659.676 597.259C659.416 597.008 659.255 596.748 659.195 596.479L659.533 596.297V600.86H658.181ZM661.561 596.882C661.959 596.882 662.315 596.782 662.627 596.583C662.939 596.384 663.186 596.111 663.368 595.764C663.55 595.417 663.641 595.023 663.641 594.581C663.641 594.139 663.55 593.749 663.368 593.411C663.194 593.064 662.952 592.791 662.64 592.592C662.328 592.393 661.968 592.293 661.561 592.293C661.153 592.293 660.794 592.393 660.482 592.592C660.17 592.783 659.923 593.051 659.741 593.398C659.559 593.745 659.468 594.139 659.468 594.581C659.468 595.023 659.559 595.417 659.741 595.764C659.923 596.111 660.17 596.384 660.482 596.583C660.794 596.782 661.153 596.882 661.561 596.882ZM669.008 598.13C668.444 598.13 667.929 597.974 667.461 597.662C667.001 597.35 666.633 596.925 666.356 596.388C666.078 595.851 665.94 595.244 665.94 594.568C665.94 593.883 666.078 593.277 666.356 592.748C666.642 592.211 667.023 591.79 667.5 591.487C667.985 591.184 668.527 591.032 669.125 591.032C669.48 591.032 669.805 591.084 670.1 591.188C670.394 591.292 670.65 591.439 670.867 591.63C671.092 591.812 671.274 592.024 671.413 592.267C671.56 592.51 671.651 592.77 671.686 593.047L671.387 592.943V591.175H672.739V598H671.387V596.375L671.699 596.284C671.647 596.518 671.538 596.748 671.374 596.973C671.218 597.19 671.014 597.385 670.763 597.558C670.52 597.731 670.247 597.87 669.944 597.974C669.649 598.078 669.337 598.13 669.008 598.13ZM669.359 596.895C669.766 596.895 670.126 596.795 670.438 596.596C670.75 596.397 670.992 596.124 671.166 595.777C671.348 595.422 671.439 595.019 671.439 594.568C671.439 594.126 671.348 593.732 671.166 593.385C670.992 593.038 670.75 592.765 670.438 592.566C670.126 592.367 669.766 592.267 669.359 592.267C668.96 592.267 668.605 592.367 668.293 592.566C667.989 592.765 667.747 593.038 667.565 593.385C667.391 593.732 667.305 594.126 667.305 594.568C667.305 595.019 667.391 595.422 667.565 595.777C667.747 596.124 667.989 596.397 668.293 596.596C668.605 596.795 668.96 596.895 669.359 596.895ZM676.883 598.13C676.311 598.13 675.796 598.03 675.336 597.831C674.877 597.632 674.496 597.337 674.192 596.947L675.102 596.167C675.362 596.47 675.644 596.691 675.947 596.83C676.259 596.96 676.61 597.025 677 597.025C677.156 597.025 677.299 597.008 677.429 596.973C677.568 596.93 677.685 596.869 677.78 596.791C677.884 596.713 677.962 596.622 678.014 596.518C678.066 596.405 678.092 596.284 678.092 596.154C678.092 595.929 678.01 595.747 677.845 595.608C677.759 595.547 677.62 595.482 677.429 595.413C677.247 595.335 677.009 595.257 676.714 595.179C676.212 595.049 675.8 594.902 675.479 594.737C675.159 594.572 674.912 594.386 674.738 594.178C674.608 594.013 674.513 593.836 674.452 593.645C674.392 593.446 674.361 593.229 674.361 592.995C674.361 592.709 674.422 592.449 674.543 592.215C674.673 591.972 674.847 591.764 675.063 591.591C675.289 591.409 675.549 591.27 675.843 591.175C676.147 591.08 676.467 591.032 676.805 591.032C677.126 591.032 677.442 591.075 677.754 591.162C678.075 591.249 678.37 591.374 678.638 591.539C678.907 591.704 679.132 591.899 679.314 592.124L678.547 592.969C678.383 592.804 678.201 592.661 678.001 592.54C677.811 592.41 677.616 592.31 677.416 592.241C677.217 592.172 677.035 592.137 676.87 592.137C676.688 592.137 676.524 592.154 676.376 592.189C676.229 592.224 676.103 592.276 675.999 592.345C675.904 592.414 675.83 592.501 675.778 592.605C675.726 592.709 675.7 592.826 675.7 592.956C675.709 593.069 675.735 593.177 675.778 593.281C675.83 593.376 675.9 593.459 675.986 593.528C676.082 593.597 676.225 593.671 676.415 593.749C676.606 593.827 676.849 593.901 677.143 593.97C677.577 594.083 677.932 594.208 678.209 594.347C678.495 594.477 678.721 594.629 678.885 594.802C679.059 594.967 679.18 595.157 679.249 595.374C679.319 595.591 679.353 595.833 679.353 596.102C679.353 596.492 679.241 596.843 679.015 597.155C678.799 597.458 678.504 597.697 678.131 597.87C677.759 598.043 677.343 598.13 676.883 598.13ZM683.104 598.13C682.532 598.13 682.016 598.03 681.557 597.831C681.098 597.632 680.716 597.337 680.413 596.947L681.323 596.167C681.583 596.47 681.865 596.691 682.168 596.83C682.48 596.96 682.831 597.025 683.221 597.025C683.377 597.025 683.52 597.008 683.65 596.973C683.789 596.93 683.906 596.869 684.001 596.791C684.105 596.713 684.183 596.622 684.235 596.518C684.287 596.405 684.313 596.284 684.313 596.154C684.313 595.929 684.231 595.747 684.066 595.608C683.979 595.547 683.841 595.482 683.65 595.413C683.468 595.335 683.23 595.257 682.935 595.179C682.432 595.049 682.021 594.902 681.7 594.737C681.379 594.572 681.132 594.386 680.959 594.178C680.829 594.013 680.734 593.836 680.673 593.645C680.612 593.446 680.582 593.229 680.582 592.995C680.582 592.709 680.643 592.449 680.764 592.215C680.894 591.972 681.067 591.764 681.284 591.591C681.509 591.409 681.769 591.27 682.064 591.175C682.367 591.08 682.688 591.032 683.026 591.032C683.347 591.032 683.663 591.075 683.975 591.162C684.296 591.249 684.59 591.374 684.859 591.539C685.128 591.704 685.353 591.899 685.535 592.124L684.768 592.969C684.603 592.804 684.421 592.661 684.222 592.54C684.031 592.41 683.836 592.31 683.637 592.241C683.438 592.172 683.256 592.137 683.091 592.137C682.909 592.137 682.744 592.154 682.597 592.189C682.45 592.224 682.324 592.276 682.22 592.345C682.125 592.414 682.051 592.501 681.999 592.605C681.947 592.709 681.921 592.826 681.921 592.956C681.93 593.069 681.956 593.177 681.999 593.281C682.051 593.376 682.12 593.459 682.207 593.528C682.302 593.597 682.445 593.671 682.636 593.749C682.827 593.827 683.069 593.901 683.364 593.97C683.797 594.083 684.153 594.208 684.43 594.347C684.716 594.477 684.941 594.629 685.106 594.802C685.279 594.967 685.401 595.157 685.47 595.374C685.539 595.591 685.574 595.833 685.574 596.102C685.574 596.492 685.461 596.843 685.236 597.155C685.019 597.458 684.725 597.697 684.352 597.87C683.979 598.043 683.563 598.13 683.104 598.13ZM688.727 598L686.4 591.175L687.752 591.162L689.416 596.271L689.117 596.245L690.924 592.254H691.73L693.55 596.258L693.199 596.284L694.876 591.175H696.228L693.927 598H693.004L691.106 593.658L691.405 593.697L689.637 598H688.727ZM700.325 598.13C699.657 598.13 699.059 597.978 698.531 597.675C698.011 597.363 697.599 596.943 697.296 596.414C696.992 595.877 696.841 595.266 696.841 594.581C696.841 593.896 696.992 593.29 697.296 592.761C697.599 592.224 698.011 591.803 698.531 591.5C699.059 591.188 699.657 591.032 700.325 591.032C700.983 591.032 701.573 591.188 702.093 591.5C702.621 591.803 703.037 592.224 703.341 592.761C703.644 593.29 703.796 593.896 703.796 594.581C703.796 595.266 703.644 595.877 703.341 596.414C703.037 596.943 702.621 597.363 702.093 597.675C701.573 597.978 700.983 598.13 700.325 598.13ZM700.325 596.908C700.732 596.908 701.096 596.808 701.417 596.609C701.737 596.401 701.989 596.124 702.171 595.777C702.353 595.422 702.439 595.023 702.431 594.581C702.439 594.13 702.353 593.732 702.171 593.385C701.989 593.03 701.737 592.752 701.417 592.553C701.096 592.354 700.732 592.254 700.325 592.254C699.917 592.254 699.549 592.358 699.22 592.566C698.899 592.765 698.648 593.043 698.466 593.398C698.284 593.745 698.197 594.139 698.206 594.581C698.197 595.023 698.284 595.422 698.466 595.777C698.648 596.124 698.899 596.401 699.22 596.609C699.549 596.808 699.917 596.908 700.325 596.908ZM705.255 598V591.175H706.607V593.32L706.477 592.8C706.572 592.471 706.733 592.172 706.958 591.903C707.192 591.634 707.456 591.422 707.751 591.266C708.054 591.11 708.366 591.032 708.687 591.032C708.834 591.032 708.973 591.045 709.103 591.071C709.242 591.097 709.35 591.127 709.428 591.162L709.077 592.618C708.973 592.575 708.856 592.54 708.726 592.514C708.605 592.479 708.483 592.462 708.362 592.462C708.128 592.462 707.903 592.51 707.686 592.605C707.478 592.692 707.292 592.817 707.127 592.982C706.971 593.138 706.845 593.324 706.75 593.541C706.655 593.749 706.607 593.979 706.607 594.23V598H705.255ZM713.053 598.13C712.429 598.13 711.87 597.978 711.376 597.675C710.891 597.363 710.505 596.943 710.219 596.414C709.933 595.877 709.79 595.266 709.79 594.581C709.79 593.896 709.929 593.29 710.206 592.761C710.492 592.224 710.878 591.803 711.363 591.5C711.848 591.188 712.399 591.032 713.014 591.032C713.352 591.032 713.677 591.088 713.989 591.201C714.31 591.305 714.596 591.452 714.847 591.643C715.098 591.825 715.293 592.029 715.432 592.254C715.579 592.471 715.653 592.692 715.653 592.917L715.263 592.943V588.38H716.602V598H715.263V596.375H715.523C715.523 596.583 715.454 596.791 715.315 596.999C715.176 597.198 714.99 597.385 714.756 597.558C714.531 597.731 714.266 597.87 713.963 597.974C713.668 598.078 713.365 598.13 713.053 598.13ZM713.235 596.973C713.642 596.973 714.002 596.869 714.314 596.661C714.626 596.453 714.869 596.171 715.042 595.816C715.224 595.452 715.315 595.04 715.315 594.581C715.315 594.122 715.224 593.714 715.042 593.359C714.869 592.995 714.626 592.709 714.314 592.501C714.002 592.293 713.642 592.189 713.235 592.189C712.828 592.189 712.468 592.293 712.156 592.501C711.844 592.709 711.597 592.995 711.415 593.359C711.242 593.714 711.155 594.122 711.155 594.581C711.155 595.04 711.242 595.452 711.415 595.816C711.597 596.171 711.844 596.453 712.156 596.661C712.468 596.869 712.828 596.973 713.235 596.973Z" fill="white"/>
<path d="M611.491 599.625H717.512V600.275H611.491V599.625Z" fill="white"/>
<path d="M1016 482.5H1163C1166.79 482.5 1169.57 482.501 1171.71 482.788C1173.83 483.074 1175.24 483.633 1176.3 484.696C1177.37 485.759 1177.93 487.165 1178.21 489.288C1178.5 491.426 1178.5 494.215 1178.5 498V506C1178.5 509.785 1178.5 512.574 1178.21 514.712C1177.93 516.835 1177.37 518.241 1176.3 519.304C1175.24 520.367 1173.83 520.926 1171.71 521.212C1169.57 521.499 1166.79 521.5 1163 521.5H1016C1012.21 521.5 1009.43 521.499 1007.29 521.212C1005.17 520.926 1003.76 520.367 1002.7 519.304C1001.63 518.241 1001.07 516.835 1000.79 514.712C1000.5 512.574 1000.5 509.785 1000.5 506V498C1000.5 494.215 1000.5 491.426 1000.79 489.288C1001.07 487.165 1001.63 485.759 1002.7 484.696C1003.76 483.633 1005.17 483.074 1007.29 482.788C1009.43 482.501 1012.21 482.5 1016 482.5Z" stroke="white"/>
<path d="M1013.29 507.084C1012.54 507.084 1011.86 506.921 1011.26 506.594C1010.66 506.258 1010.19 505.801 1009.85 505.222C1009.51 504.634 1009.34 503.971 1009.34 503.234V497.186H1010.86V503.108C1010.86 503.584 1010.97 504.013 1011.19 504.396C1011.42 504.769 1011.71 505.068 1012.07 505.292C1012.45 505.516 1012.85 505.628 1013.29 505.628C1013.76 505.628 1014.18 505.516 1014.55 505.292C1014.93 505.068 1015.24 504.769 1015.46 504.396C1015.69 504.013 1015.8 503.584 1015.8 503.108V497.186H1017.24V503.234C1017.24 503.971 1017.07 504.634 1016.72 505.222C1016.39 505.801 1015.92 506.258 1015.32 506.594C1014.72 506.921 1014.05 507.084 1013.29 507.084ZM1021.93 507.14C1021.32 507.14 1020.76 507.033 1020.27 506.818C1019.77 506.603 1019.36 506.286 1019.03 505.866L1020.01 505.026C1020.29 505.353 1020.6 505.591 1020.92 505.74C1021.26 505.88 1021.64 505.95 1022.06 505.95C1022.23 505.95 1022.38 505.931 1022.52 505.894C1022.67 505.847 1022.8 505.782 1022.9 505.698C1023.01 505.614 1023.09 505.516 1023.15 505.404C1023.21 505.283 1023.23 505.152 1023.23 505.012C1023.23 504.769 1023.15 504.573 1022.97 504.424C1022.88 504.359 1022.73 504.289 1022.52 504.214C1022.32 504.13 1022.07 504.046 1021.75 503.962C1021.21 503.822 1020.77 503.663 1020.42 503.486C1020.08 503.309 1019.81 503.108 1019.62 502.884C1019.48 502.707 1019.38 502.515 1019.31 502.31C1019.25 502.095 1019.22 501.862 1019.22 501.61C1019.22 501.302 1019.28 501.022 1019.41 500.77C1019.55 500.509 1019.74 500.285 1019.97 500.098C1020.22 499.902 1020.5 499.753 1020.81 499.65C1021.14 499.547 1021.48 499.496 1021.85 499.496C1022.19 499.496 1022.53 499.543 1022.87 499.636C1023.22 499.729 1023.53 499.865 1023.82 500.042C1024.11 500.219 1024.35 500.429 1024.55 500.672L1023.72 501.582C1023.55 501.405 1023.35 501.251 1023.14 501.12C1022.93 500.98 1022.72 500.873 1022.51 500.798C1022.29 500.723 1022.1 500.686 1021.92 500.686C1021.72 500.686 1021.55 500.705 1021.39 500.742C1021.23 500.779 1021.09 500.835 1020.98 500.91C1020.88 500.985 1020.8 501.078 1020.74 501.19C1020.69 501.302 1020.66 501.428 1020.66 501.568C1020.67 501.689 1020.7 501.806 1020.74 501.918C1020.8 502.021 1020.87 502.109 1020.97 502.184C1021.07 502.259 1021.22 502.338 1021.43 502.422C1021.63 502.506 1021.9 502.585 1022.21 502.66C1022.68 502.781 1023.06 502.917 1023.36 503.066C1023.67 503.206 1023.91 503.369 1024.09 503.556C1024.28 503.733 1024.41 503.939 1024.48 504.172C1024.56 504.405 1024.59 504.667 1024.59 504.956C1024.59 505.376 1024.47 505.754 1024.23 506.09C1024 506.417 1023.68 506.673 1023.28 506.86C1022.88 507.047 1022.43 507.14 1021.93 507.14ZM1029.61 507.14C1028.86 507.14 1028.18 506.981 1027.6 506.664C1027.02 506.337 1026.56 505.894 1026.22 505.334C1025.9 504.774 1025.73 504.13 1025.73 503.402C1025.73 502.823 1025.83 502.296 1026.01 501.82C1026.2 501.344 1026.46 500.933 1026.78 500.588C1027.12 500.233 1027.52 499.963 1027.97 499.776C1028.44 499.58 1028.94 499.482 1029.49 499.482C1029.96 499.482 1030.41 499.575 1030.82 499.762C1031.23 499.939 1031.58 500.187 1031.88 500.504C1032.19 500.821 1032.42 501.199 1032.58 501.638C1032.75 502.067 1032.83 502.539 1032.82 503.052L1032.8 503.668H1026.8L1026.48 502.52H1031.56L1031.35 502.758V502.422C1031.32 502.114 1031.22 501.839 1031.04 501.596C1030.86 501.353 1030.64 501.162 1030.37 501.022C1030.1 500.882 1029.8 500.812 1029.49 500.812C1028.98 500.812 1028.56 500.91 1028.21 501.106C1027.87 501.293 1027.61 501.573 1027.43 501.946C1027.25 502.31 1027.16 502.763 1027.16 503.304C1027.16 503.817 1027.27 504.265 1027.48 504.648C1027.7 505.021 1028 505.311 1028.39 505.516C1028.79 505.721 1029.24 505.824 1029.75 505.824C1030.12 505.824 1030.45 505.763 1030.76 505.642C1031.08 505.521 1031.42 505.301 1031.78 504.984L1032.51 506.006C1032.29 506.23 1032.01 506.426 1031.68 506.594C1031.37 506.762 1031.03 506.897 1030.66 507C1030.31 507.093 1029.96 507.14 1029.61 507.14ZM1041.7 507.14C1041.16 507.14 1040.67 507.07 1040.21 506.93C1039.76 506.79 1039.35 506.58 1038.98 506.3C1038.62 506.011 1038.29 505.656 1038 505.236L1039.04 504.046C1039.49 504.699 1039.93 505.152 1040.35 505.404C1040.77 505.656 1041.27 505.782 1041.85 505.782C1042.21 505.782 1042.53 505.726 1042.82 505.614C1043.11 505.502 1043.33 505.348 1043.5 505.152C1043.67 504.956 1043.75 504.732 1043.75 504.48C1043.75 504.312 1043.73 504.153 1043.67 504.004C1043.61 503.855 1043.53 503.719 1043.4 503.598C1043.29 503.477 1043.14 503.365 1042.96 503.262C1042.78 503.159 1042.57 503.071 1042.33 502.996C1042.08 502.912 1041.8 502.842 1041.49 502.786C1040.98 502.683 1040.54 502.548 1040.17 502.38C1039.8 502.212 1039.48 502.002 1039.23 501.75C1038.98 501.498 1038.79 501.213 1038.67 500.896C1038.55 500.569 1038.49 500.205 1038.49 499.804C1038.49 499.412 1038.57 499.048 1038.74 498.712C1038.92 498.376 1039.16 498.087 1039.46 497.844C1039.76 497.592 1040.12 497.401 1040.53 497.27C1040.95 497.13 1041.39 497.06 1041.86 497.06C1042.37 497.06 1042.83 497.125 1043.25 497.256C1043.67 497.387 1044.04 497.583 1044.37 497.844C1044.7 498.096 1044.97 498.409 1045.18 498.782L1044.12 499.832C1043.93 499.524 1043.72 499.267 1043.49 499.062C1043.26 498.847 1043 498.689 1042.72 498.586C1042.44 498.474 1042.14 498.418 1041.82 498.418C1041.46 498.418 1041.14 498.474 1040.87 498.586C1040.6 498.698 1040.39 498.857 1040.23 499.062C1040.08 499.258 1040 499.491 1040 499.762C1040 499.958 1040.04 500.14 1040.11 500.308C1040.19 500.467 1040.3 500.611 1040.45 500.742C1040.61 500.863 1040.82 500.975 1041.08 501.078C1041.34 501.171 1041.65 501.255 1042.02 501.33C1042.53 501.442 1042.99 501.587 1043.39 501.764C1043.79 501.932 1044.13 502.133 1044.41 502.366C1044.69 502.599 1044.9 502.861 1045.04 503.15C1045.19 503.439 1045.27 503.752 1045.27 504.088C1045.27 504.713 1045.12 505.255 1044.83 505.712C1044.54 506.169 1044.13 506.524 1043.6 506.776C1043.07 507.019 1042.43 507.14 1041.7 507.14ZM1050.43 507.14C1049.9 507.14 1049.41 507.07 1048.95 506.93C1048.5 506.79 1048.09 506.58 1047.72 506.3C1047.35 506.011 1047.03 505.656 1046.74 505.236L1047.77 504.046C1048.23 504.699 1048.67 505.152 1049.09 505.404C1049.51 505.656 1050.01 505.782 1050.59 505.782C1050.94 505.782 1051.26 505.726 1051.55 505.614C1051.84 505.502 1052.07 505.348 1052.24 505.152C1052.41 504.956 1052.49 504.732 1052.49 504.48C1052.49 504.312 1052.46 504.153 1052.41 504.004C1052.35 503.855 1052.26 503.719 1052.14 503.598C1052.03 503.477 1051.88 503.365 1051.69 503.262C1051.52 503.159 1051.31 503.071 1051.06 502.996C1050.82 502.912 1050.54 502.842 1050.22 502.786C1049.72 502.683 1049.28 502.548 1048.91 502.38C1048.53 502.212 1048.22 502.002 1047.97 501.75C1047.72 501.498 1047.53 501.213 1047.41 500.896C1047.29 500.569 1047.23 500.205 1047.23 499.804C1047.23 499.412 1047.31 499.048 1047.48 498.712C1047.66 498.376 1047.89 498.087 1048.19 497.844C1048.5 497.592 1048.86 497.401 1049.27 497.27C1049.68 497.13 1050.13 497.06 1050.6 497.06C1051.11 497.06 1051.57 497.125 1051.99 497.256C1052.41 497.387 1052.78 497.583 1053.11 497.844C1053.43 498.096 1053.7 498.409 1053.92 498.782L1052.86 499.832C1052.67 499.524 1052.46 499.267 1052.23 499.062C1051.99 498.847 1051.74 498.689 1051.46 498.586C1051.18 498.474 1050.88 498.418 1050.56 498.418C1050.2 498.418 1049.88 498.474 1049.61 498.586C1049.34 498.698 1049.12 498.857 1048.96 499.062C1048.81 499.258 1048.74 499.491 1048.74 499.762C1048.74 499.958 1048.78 500.14 1048.85 500.308C1048.93 500.467 1049.04 500.611 1049.19 500.742C1049.35 500.863 1049.56 500.975 1049.82 501.078C1050.08 501.171 1050.39 501.255 1050.76 501.33C1051.27 501.442 1051.73 501.587 1052.13 501.764C1052.53 501.932 1052.87 502.133 1053.15 502.366C1053.43 502.599 1053.64 502.861 1053.78 503.15C1053.93 503.439 1054 503.752 1054 504.088C1054 504.713 1053.86 505.255 1053.57 505.712C1053.28 506.169 1052.87 506.524 1052.34 506.776C1051.81 507.019 1051.17 507.14 1050.43 507.14ZM1060.25 507.14C1059.56 507.14 1058.92 507.014 1058.33 506.762C1057.75 506.51 1057.24 506.16 1056.8 505.712C1056.37 505.255 1056.04 504.723 1055.8 504.116C1055.56 503.5 1055.45 502.828 1055.45 502.1C1055.45 501.372 1055.56 500.705 1055.8 500.098C1056.04 499.482 1056.37 498.95 1056.8 498.502C1057.24 498.045 1057.75 497.69 1058.33 497.438C1058.92 497.186 1059.56 497.06 1060.25 497.06C1060.94 497.06 1061.57 497.186 1062.15 497.438C1062.74 497.69 1063.25 498.045 1063.68 498.502C1064.12 498.959 1064.45 499.496 1064.69 500.112C1064.93 500.719 1065.05 501.381 1065.05 502.1C1065.05 502.819 1064.93 503.486 1064.69 504.102C1064.45 504.709 1064.12 505.241 1063.68 505.698C1063.25 506.155 1062.74 506.51 1062.15 506.762C1061.57 507.014 1060.94 507.14 1060.25 507.14ZM1060.25 505.67C1060.72 505.67 1061.16 505.581 1061.55 505.404C1061.95 505.227 1062.3 504.979 1062.59 504.662C1062.87 504.335 1063.1 503.957 1063.26 503.528C1063.43 503.089 1063.51 502.613 1063.51 502.1C1063.51 501.587 1063.43 501.115 1063.26 500.686C1063.1 500.247 1062.87 499.869 1062.59 499.552C1062.3 499.225 1061.95 498.973 1061.55 498.796C1061.16 498.619 1060.72 498.53 1060.25 498.53C1059.77 498.53 1059.33 498.619 1058.93 498.796C1058.54 498.973 1058.19 499.221 1057.9 499.538C1057.61 499.855 1057.38 500.233 1057.22 500.672C1057.06 501.101 1056.99 501.577 1056.99 502.1C1056.99 502.613 1057.06 503.089 1057.22 503.528C1057.38 503.967 1057.61 504.345 1057.9 504.662C1058.19 504.979 1058.54 505.227 1058.93 505.404C1059.33 505.581 1059.77 505.67 1060.25 505.67ZM1067.32 507.14C1067.01 507.14 1066.77 507.051 1066.61 506.874C1066.44 506.687 1066.35 506.426 1066.35 506.09C1066.35 505.782 1066.44 505.53 1066.62 505.334C1066.8 505.138 1067.03 505.04 1067.32 505.04C1067.63 505.04 1067.87 505.133 1068.03 505.32C1068.2 505.497 1068.29 505.754 1068.29 506.09C1068.29 506.398 1068.2 506.65 1068.02 506.846C1067.84 507.042 1067.61 507.14 1067.32 507.14ZM1067.32 501.61C1067.01 501.61 1066.77 501.521 1066.61 501.344C1066.44 501.157 1066.35 500.896 1066.35 500.56C1066.35 500.252 1066.44 500 1066.62 499.804C1066.8 499.608 1067.03 499.51 1067.32 499.51C1067.63 499.51 1067.87 499.603 1068.03 499.79C1068.2 499.967 1068.29 500.224 1068.29 500.56C1068.29 500.868 1068.2 501.12 1068.02 501.316C1067.84 501.512 1067.61 501.61 1067.32 501.61ZM1077.23 507.14C1076.7 507.14 1076.2 507.07 1075.75 506.93C1075.3 506.79 1074.89 506.58 1074.51 506.3C1074.15 506.011 1073.82 505.656 1073.53 505.236L1074.57 504.046C1075.03 504.699 1075.47 505.152 1075.89 505.404C1076.31 505.656 1076.81 505.782 1077.38 505.782C1077.74 505.782 1078.06 505.726 1078.35 505.614C1078.64 505.502 1078.87 505.348 1079.04 505.152C1079.2 504.956 1079.29 504.732 1079.29 504.48C1079.29 504.312 1079.26 504.153 1079.2 504.004C1079.15 503.855 1079.06 503.719 1078.94 503.598C1078.83 503.477 1078.68 503.365 1078.49 503.262C1078.31 503.159 1078.1 503.071 1077.86 502.996C1077.62 502.912 1077.34 502.842 1077.02 502.786C1076.52 502.683 1076.08 502.548 1075.7 502.38C1075.33 502.212 1075.02 502.002 1074.77 501.75C1074.51 501.498 1074.33 501.213 1074.21 500.896C1074.08 500.569 1074.02 500.205 1074.02 499.804C1074.02 499.412 1074.11 499.048 1074.28 498.712C1074.45 498.376 1074.69 498.087 1074.99 497.844C1075.3 497.592 1075.66 497.401 1076.07 497.27C1076.48 497.13 1076.92 497.06 1077.4 497.06C1077.9 497.06 1078.36 497.125 1078.78 497.256C1079.2 497.387 1079.58 497.583 1079.9 497.844C1080.23 498.096 1080.5 498.409 1080.72 498.782L1079.65 499.832C1079.47 499.524 1079.26 499.267 1079.02 499.062C1078.79 498.847 1078.53 498.689 1078.25 498.586C1077.97 498.474 1077.67 498.418 1077.36 498.418C1076.99 498.418 1076.67 498.474 1076.4 498.586C1076.13 498.698 1075.92 498.857 1075.76 499.062C1075.61 499.258 1075.54 499.491 1075.54 499.762C1075.54 499.958 1075.57 500.14 1075.65 500.308C1075.72 500.467 1075.83 500.611 1075.98 500.742C1076.14 500.863 1076.35 500.975 1076.61 501.078C1076.88 501.171 1077.19 501.255 1077.55 501.33C1078.07 501.442 1078.52 501.587 1078.92 501.764C1079.33 501.932 1079.67 502.133 1079.95 502.366C1080.23 502.599 1080.44 502.861 1080.58 503.15C1080.73 503.439 1080.8 503.752 1080.8 504.088C1080.8 504.713 1080.66 505.255 1080.37 505.712C1080.08 506.169 1079.67 506.524 1079.13 506.776C1078.6 507.019 1077.97 507.14 1077.23 507.14ZM1082.82 507V499.65H1084.26V507H1082.82ZM1083.52 498.026C1083.21 498.026 1082.97 497.947 1082.8 497.788C1082.63 497.629 1082.55 497.405 1082.55 497.116C1082.55 496.845 1082.63 496.626 1082.8 496.458C1082.98 496.29 1083.22 496.206 1083.52 496.206C1083.82 496.206 1084.06 496.285 1084.23 496.444C1084.4 496.603 1084.48 496.827 1084.48 497.116C1084.48 497.387 1084.39 497.606 1084.22 497.774C1084.05 497.942 1083.81 498.026 1083.52 498.026ZM1086.47 507V499.65H1087.92V501.162L1087.66 501.33C1087.76 501.003 1087.94 500.705 1088.21 500.434C1088.48 500.154 1088.8 499.93 1089.18 499.762C1089.55 499.585 1089.93 499.496 1090.32 499.496C1090.88 499.496 1091.35 499.608 1091.72 499.832C1092.1 500.047 1092.38 500.378 1092.56 500.826C1092.75 501.274 1092.84 501.839 1092.84 502.52V507H1091.4V502.618C1091.4 502.198 1091.35 501.853 1091.23 501.582C1091.12 501.302 1090.95 501.101 1090.72 500.98C1090.48 500.849 1090.19 500.793 1089.85 500.812C1089.57 500.812 1089.31 500.859 1089.08 500.952C1088.85 501.036 1088.64 501.157 1088.46 501.316C1088.29 501.475 1088.16 501.661 1088.06 501.876C1087.96 502.081 1087.92 502.305 1087.92 502.548V507H1087.2C1087.08 507 1086.96 507 1086.84 507C1086.72 507 1086.6 507 1086.47 507ZM1098.09 510.22C1097.57 510.22 1097.05 510.136 1096.52 509.968C1096.01 509.809 1095.59 509.599 1095.28 509.338L1095.81 508.218C1096 508.358 1096.21 508.479 1096.47 508.582C1096.72 508.694 1096.98 508.778 1097.26 508.834C1097.54 508.899 1097.82 508.932 1098.09 508.932C1098.6 508.932 1099.03 508.848 1099.38 508.68C1099.72 508.512 1099.99 508.265 1100.16 507.938C1100.34 507.611 1100.43 507.205 1100.43 506.72V505.306L1100.58 505.404C1100.54 505.693 1100.38 505.973 1100.12 506.244C1099.87 506.505 1099.55 506.72 1099.17 506.888C1098.79 507.056 1098.39 507.14 1097.99 507.14C1097.29 507.14 1096.67 506.977 1096.12 506.65C1095.58 506.314 1095.15 505.861 1094.83 505.292C1094.51 504.713 1094.35 504.055 1094.35 503.318C1094.35 502.581 1094.51 501.927 1094.81 501.358C1095.13 500.779 1095.56 500.327 1096.1 500C1096.65 499.664 1097.27 499.496 1097.95 499.496C1098.23 499.496 1098.5 499.533 1098.76 499.608C1099.02 499.673 1099.27 499.771 1099.49 499.902C1099.71 500.023 1099.92 500.159 1100.09 500.308C1100.27 500.457 1100.41 500.616 1100.53 500.784C1100.64 500.952 1100.71 501.111 1100.74 501.26L1100.43 501.372V499.65H1101.87V506.552C1101.87 507.14 1101.78 507.658 1101.6 508.106C1101.44 508.563 1101.19 508.946 1100.86 509.254C1100.54 509.571 1100.14 509.809 1099.67 509.968C1099.21 510.136 1098.68 510.22 1098.09 510.22ZM1098.15 505.81C1098.6 505.81 1099.01 505.703 1099.36 505.488C1099.72 505.273 1099.99 504.979 1100.19 504.606C1100.39 504.233 1100.48 503.803 1100.48 503.318C1100.48 502.833 1100.38 502.403 1100.18 502.03C1099.98 501.647 1099.71 501.349 1099.35 501.134C1099.01 500.919 1098.6 500.812 1098.15 500.812C1097.7 500.812 1097.3 500.924 1096.94 501.148C1096.6 501.363 1096.32 501.661 1096.12 502.044C1095.92 502.417 1095.82 502.842 1095.82 503.318C1095.82 503.794 1095.92 504.223 1096.12 504.606C1096.32 504.979 1096.6 505.273 1096.94 505.488C1097.3 505.703 1097.7 505.81 1098.15 505.81ZM1103.92 507V496.64H1105.36V507H1103.92ZM1110.7 507.14C1109.94 507.14 1109.27 506.981 1108.68 506.664C1108.11 506.337 1107.65 505.894 1107.31 505.334C1106.99 504.774 1106.82 504.13 1106.82 503.402C1106.82 502.823 1106.92 502.296 1107.1 501.82C1107.29 501.344 1107.55 500.933 1107.87 500.588C1108.21 500.233 1108.6 499.963 1109.06 499.776C1109.53 499.58 1110.03 499.482 1110.57 499.482C1111.05 499.482 1111.49 499.575 1111.9 499.762C1112.31 499.939 1112.67 500.187 1112.97 500.504C1113.28 500.821 1113.51 501.199 1113.67 501.638C1113.84 502.067 1113.92 502.539 1113.91 503.052L1113.89 503.668H1107.89L1107.56 502.52H1112.65L1112.44 502.758V502.422C1112.41 502.114 1112.31 501.839 1112.13 501.596C1111.95 501.353 1111.73 501.162 1111.46 501.022C1111.19 500.882 1110.89 500.812 1110.57 500.812C1110.07 500.812 1109.65 500.91 1109.3 501.106C1108.95 501.293 1108.69 501.573 1108.52 501.946C1108.34 502.31 1108.25 502.763 1108.25 503.304C1108.25 503.817 1108.36 504.265 1108.57 504.648C1108.79 505.021 1109.09 505.311 1109.48 505.516C1109.87 505.721 1110.33 505.824 1110.84 505.824C1111.2 505.824 1111.54 505.763 1111.85 505.642C1112.17 505.521 1112.51 505.301 1112.87 504.984L1113.6 506.006C1113.37 506.23 1113.1 506.426 1112.77 506.594C1112.45 506.762 1112.11 506.897 1111.75 507C1111.4 507.093 1111.05 507.14 1110.7 507.14ZM1122.78 507.14C1122.25 507.14 1121.76 507.07 1121.3 506.93C1120.85 506.79 1120.44 506.58 1120.07 506.3C1119.7 506.011 1119.38 505.656 1119.09 505.236L1120.12 504.046C1120.58 504.699 1121.02 505.152 1121.44 505.404C1121.86 505.656 1122.36 505.782 1122.94 505.782C1123.29 505.782 1123.62 505.726 1123.9 505.614C1124.19 505.502 1124.42 505.348 1124.59 505.152C1124.76 504.956 1124.84 504.732 1124.84 504.48C1124.84 504.312 1124.81 504.153 1124.76 504.004C1124.7 503.855 1124.61 503.719 1124.49 503.598C1124.38 503.477 1124.23 503.365 1124.04 503.262C1123.87 503.159 1123.66 503.071 1123.41 502.996C1123.17 502.912 1122.89 502.842 1122.57 502.786C1122.07 502.683 1121.63 502.548 1121.26 502.38C1120.89 502.212 1120.57 502.002 1120.32 501.75C1120.07 501.498 1119.88 501.213 1119.76 500.896C1119.64 500.569 1119.58 500.205 1119.58 499.804C1119.58 499.412 1119.66 499.048 1119.83 498.712C1120.01 498.376 1120.25 498.087 1120.54 497.844C1120.85 497.592 1121.21 497.401 1121.62 497.27C1122.03 497.13 1122.48 497.06 1122.95 497.06C1123.46 497.06 1123.92 497.125 1124.34 497.256C1124.76 497.387 1125.13 497.583 1125.46 497.844C1125.79 498.096 1126.06 498.409 1126.27 498.782L1125.21 499.832C1125.02 499.524 1124.81 499.267 1124.58 499.062C1124.34 498.847 1124.09 498.689 1123.81 498.586C1123.53 498.474 1123.23 498.418 1122.91 498.418C1122.55 498.418 1122.23 498.474 1121.96 498.586C1121.69 498.698 1121.47 498.857 1121.31 499.062C1121.17 499.258 1121.09 499.491 1121.09 499.762C1121.09 499.958 1121.13 500.14 1121.2 500.308C1121.28 500.467 1121.39 500.611 1121.54 500.742C1121.7 500.863 1121.91 500.975 1122.17 501.078C1122.43 501.171 1122.74 501.255 1123.11 501.33C1123.62 501.442 1124.08 501.587 1124.48 501.764C1124.88 501.932 1125.22 502.133 1125.5 502.366C1125.78 502.599 1125.99 502.861 1126.13 503.15C1126.28 503.439 1126.35 503.752 1126.35 504.088C1126.35 504.713 1126.21 505.255 1125.92 505.712C1125.63 506.169 1125.22 506.524 1124.69 506.776C1124.16 507.019 1123.52 507.14 1122.78 507.14ZM1128.37 507V499.65H1129.81V507H1128.37ZM1129.07 498.026C1128.76 498.026 1128.53 497.947 1128.36 497.788C1128.19 497.629 1128.11 497.405 1128.11 497.116C1128.11 496.845 1128.19 496.626 1128.36 496.458C1128.53 496.29 1128.77 496.206 1129.07 496.206C1129.38 496.206 1129.62 496.285 1129.79 496.444C1129.95 496.603 1130.04 496.827 1130.04 497.116C1130.04 497.387 1129.95 497.606 1129.77 497.774C1129.6 497.942 1129.37 498.026 1129.07 498.026ZM1135.32 510.22C1134.8 510.22 1134.27 510.136 1133.75 509.968C1133.24 509.809 1132.82 509.599 1132.51 509.338L1133.04 508.218C1133.22 508.358 1133.44 508.479 1133.7 508.582C1133.95 508.694 1134.21 508.778 1134.49 508.834C1134.77 508.899 1135.05 508.932 1135.32 508.932C1135.83 508.932 1136.26 508.848 1136.61 508.68C1136.95 508.512 1137.21 508.265 1137.39 507.938C1137.57 507.611 1137.66 507.205 1137.66 506.72V505.306L1137.81 505.404C1137.76 505.693 1137.61 505.973 1137.35 506.244C1137.1 506.505 1136.78 506.72 1136.4 506.888C1136.01 507.056 1135.62 507.14 1135.22 507.14C1134.52 507.14 1133.9 506.977 1133.35 506.65C1132.8 506.314 1132.37 505.861 1132.06 505.292C1131.74 504.713 1131.58 504.055 1131.58 503.318C1131.58 502.581 1131.74 501.927 1132.04 501.358C1132.36 500.779 1132.79 500.327 1133.33 500C1133.88 499.664 1134.5 499.496 1135.18 499.496C1135.46 499.496 1135.73 499.533 1135.99 499.608C1136.25 499.673 1136.5 499.771 1136.72 499.902C1136.94 500.023 1137.14 500.159 1137.32 500.308C1137.5 500.457 1137.64 500.616 1137.76 500.784C1137.87 500.952 1137.94 501.111 1137.97 501.26L1137.66 501.372V499.65H1139.1V506.552C1139.1 507.14 1139.01 507.658 1138.83 508.106C1138.67 508.563 1138.42 508.946 1138.09 509.254C1137.76 509.571 1137.37 509.809 1136.9 509.968C1136.43 510.136 1135.91 510.22 1135.32 510.22ZM1135.38 505.81C1135.83 505.81 1136.24 505.703 1136.59 505.488C1136.95 505.273 1137.22 504.979 1137.42 504.606C1137.62 504.233 1137.71 503.803 1137.71 503.318C1137.71 502.833 1137.61 502.403 1137.41 502.03C1137.21 501.647 1136.93 501.349 1136.58 501.134C1136.23 500.919 1135.83 500.812 1135.38 500.812C1134.93 500.812 1134.53 500.924 1134.17 501.148C1133.83 501.363 1133.55 501.661 1133.35 502.044C1133.15 502.417 1133.05 502.842 1133.05 503.318C1133.05 503.794 1133.15 504.223 1133.35 504.606C1133.55 504.979 1133.83 505.273 1134.17 505.488C1134.53 505.703 1134.93 505.81 1135.38 505.81ZM1141.12 507V499.65H1142.56V501.162L1142.31 501.33C1142.4 501.003 1142.59 500.705 1142.86 500.434C1143.13 500.154 1143.45 499.93 1143.82 499.762C1144.2 499.585 1144.58 499.496 1144.97 499.496C1145.53 499.496 1146 499.608 1146.37 499.832C1146.74 500.047 1147.02 500.378 1147.21 500.826C1147.4 501.274 1147.49 501.839 1147.49 502.52V507H1146.05V502.618C1146.05 502.198 1145.99 501.853 1145.88 501.582C1145.77 501.302 1145.6 501.101 1145.36 500.98C1145.13 500.849 1144.84 500.793 1144.5 500.812C1144.22 500.812 1143.96 500.859 1143.73 500.952C1143.49 501.036 1143.29 501.157 1143.11 501.316C1142.94 501.475 1142.81 501.661 1142.7 501.876C1142.61 502.081 1142.56 502.305 1142.56 502.548V507H1141.85C1141.73 507 1141.61 507 1141.49 507C1141.36 507 1141.24 507 1141.12 507ZM1149.18 503.71V502.282H1153.21V503.71H1149.18ZM1158.26 507.14C1157.54 507.14 1156.9 506.977 1156.33 506.65C1155.77 506.314 1155.33 505.861 1155 505.292C1154.67 504.713 1154.51 504.055 1154.51 503.318C1154.51 502.581 1154.67 501.927 1155 501.358C1155.33 500.779 1155.77 500.327 1156.33 500C1156.9 499.664 1157.54 499.496 1158.26 499.496C1158.97 499.496 1159.61 499.664 1160.17 500C1160.73 500.327 1161.18 500.779 1161.51 501.358C1161.84 501.927 1162 502.581 1162 503.318C1162 504.055 1161.84 504.713 1161.51 505.292C1161.18 505.861 1160.73 506.314 1160.17 506.65C1159.61 506.977 1158.97 507.14 1158.26 507.14ZM1158.26 505.824C1158.7 505.824 1159.09 505.717 1159.44 505.502C1159.78 505.278 1160.05 504.979 1160.25 504.606C1160.45 504.223 1160.54 503.794 1160.53 503.318C1160.54 502.833 1160.45 502.403 1160.25 502.03C1160.05 501.647 1159.78 501.349 1159.44 501.134C1159.09 500.919 1158.7 500.812 1158.26 500.812C1157.82 500.812 1157.43 500.924 1157.07 501.148C1156.73 501.363 1156.46 501.661 1156.26 502.044C1156.06 502.417 1155.97 502.842 1155.98 503.318C1155.97 503.794 1156.06 504.223 1156.26 504.606C1156.46 504.979 1156.73 505.278 1157.07 505.502C1157.43 505.717 1157.82 505.824 1158.26 505.824ZM1163.57 507V499.65H1165.01V501.162L1164.76 501.33C1164.85 501.003 1165.04 500.705 1165.31 500.434C1165.58 500.154 1165.9 499.93 1166.27 499.762C1166.65 499.585 1167.03 499.496 1167.42 499.496C1167.98 499.496 1168.45 499.608 1168.82 499.832C1169.19 500.047 1169.47 500.378 1169.66 500.826C1169.85 501.274 1169.94 501.839 1169.94 502.52V507H1168.5V502.618C1168.5 502.198 1168.44 501.853 1168.33 501.582C1168.22 501.302 1168.05 501.101 1167.81 500.98C1167.58 500.849 1167.29 500.793 1166.94 500.812C1166.66 500.812 1166.41 500.859 1166.17 500.952C1165.94 501.036 1165.74 501.157 1165.56 501.316C1165.39 501.475 1165.26 501.661 1165.15 501.876C1165.06 502.081 1165.01 502.305 1165.01 502.548V507H1164.3C1164.18 507 1164.06 507 1163.93 507C1163.81 507 1163.69 507 1163.57 507Z" fill="white"/>
<path d="M764.167 373.007H755.816C749.338 380.259 743.543 387.858 743.543 387.858V387.885H743.476V365.061H737.079V405.393H743.476V390.542H743.543C743.543 390.542 749.352 398.141 755.816 405.393H764.167C756.673 396.993 751.707 390.783 750.449 389.207C751.694 387.631 756.673 381.421 764.167 373.021V373.007Z" fill="white"/>
<path d="M635.321 388.245C635.321 397.126 630.851 399.89 624.627 399.89H618.886V370.63H622.459C631.467 370.63 635.335 373.769 635.335 382.463V388.245H635.321ZM642.147 385.467C642.147 371.952 638.092 365.142 622.914 365.142H612.274V405.393H624.855C639.376 405.393 642.147 398.328 642.147 385.481" fill="white"/>
<path d="M682.298 365.048L675.714 365.061L675.74 365.048V405.379H682.285V365.061L682.298 365.048Z" fill="white"/>
<path d="M659.252 378.87C654.353 378.87 652.292 383.09 652.292 387.204H665.114C665.114 383.037 664.271 378.87 659.252 378.87ZM671.163 391.717H652.359V392.679C652.359 396.725 654.366 400.705 660.229 400.705C663.682 400.705 666.76 399.797 669.423 398.475L669.785 403.67C667.429 405.045 663.802 405.967 659.559 405.967C648.611 405.967 645.895 399.57 645.895 390.155C645.895 380.74 649.696 374.223 659.439 374.223C666.693 374.223 671.284 378.015 671.284 388.285C671.284 388.953 671.163 391.731 671.163 391.731" fill="white"/>
<path d="M698.64 406.02C693.139 406.02 690.784 403.122 690.837 397.807L690.891 380.313H685.952V375.011H690.891L690.944 367.345H697.422L697.369 375.011H705.225V380.313H697.369L697.315 396.779C697.315 399.436 698.332 400.705 700.755 400.705C702.628 400.705 704.864 399.864 704.864 399.864L705.225 404.685C705.225 404.685 702.2 406.02 698.64 406.02Z" fill="white"/>
<path d="M720.898 379.097C715.999 379.097 713.938 383.317 713.938 387.431H726.746C726.746 383.264 725.903 379.097 720.884 379.097M732.796 391.944H713.991V392.906C713.991 396.952 715.986 400.932 721.848 400.932C725.301 400.932 728.379 400.024 731.043 398.702L731.417 403.897C729.062 405.286 725.421 406.181 721.192 406.181C710.244 406.181 707.527 399.784 707.527 390.369C707.527 380.954 711.328 374.436 721.072 374.436C728.326 374.436 732.916 378.243 732.916 388.499C732.916 389.167 732.796 391.944 732.796 391.944Z" fill="white"/>
<path d="M767.031 403.016C767.031 401.72 767.968 400.772 769.253 400.772C770.538 400.772 771.448 401.707 771.448 403.002C771.448 404.298 770.511 405.259 769.24 405.259C767.968 405.259 767.031 404.324 767.031 403.029V403.016ZM771.06 403.002C771.06 401.92 770.297 401.119 769.24 401.119C768.182 401.119 767.433 401.88 767.433 403.002C767.433 404.124 768.196 404.885 769.253 404.885C770.311 404.885 771.06 404.124 771.06 403.002ZM769.628 403.99L769.119 403.323H768.852V403.937C768.852 404.084 768.785 404.164 768.638 404.164H768.557C768.423 404.164 768.343 404.057 768.343 403.884V402.107C768.343 401.92 768.45 401.827 768.611 401.827H769.32C769.922 401.827 770.244 402.067 770.244 402.561C770.244 402.935 770.016 403.189 769.615 403.256L770.203 403.977C770.203 403.977 770.096 404.164 769.922 404.164C769.829 404.164 769.695 404.111 769.601 403.977L769.628 403.99ZM768.852 402.935H769.32C769.601 402.935 769.748 402.802 769.748 402.588C769.748 402.348 769.588 402.241 769.293 402.241H768.838V402.935H768.852Z" fill="white"/>
<line x1="961.5" y1="385" x2="961.5" y2="629" stroke="white" stroke-opacity="0.2"/>
</g>
<defs>
<linearGradient id="paint0_linear_1_2" x1="0" y1="0" x2="1728" y2="1117" gradientUnits="userSpaceOnUse">
<stop stop-color="#362C66"/>
<stop offset="1" stop-color="#4C5E9B"/>
</linearGradient>
<linearGradient id="paint1_linear_1_2" x1="484" y1="420" x2="484" y2="585" gradientUnits="userSpaceOnUse">
<stop stop-color="#13B5EA"/>
<stop offset="1" stop-color="#CB55FF"/>
</linearGradient>
<linearGradient id="paint2_linear_1_2" x1="1243.47" y1="420" x2="1243.47" y2="585" gradientUnits="userSpaceOnUse">
<stop stop-color="#13B5EA"/>
<stop offset="1" stop-color="#CB55FF"/>
</linearGradient>
<linearGradient id="paint3_linear_1_2" x1="459.332" y1="503.99" x2="591" y2="503.99" gradientUnits="userSpaceOnUse">
<stop stop-color="#362C66"/>
<stop offset="1" stop-color="#3E4A72" stop-opacity="0"/>
</linearGradient>
<linearGradient id="paint4_linear_1_2" x1="1265.58" y1="501.864" x2="1133" y2="500" gradientUnits="userSpaceOnUse">
<stop stop-color="#362C66"/>
<stop offset="1" stop-color="#3E4A72" stop-opacity="0"/>
</linearGradient>
<clipPath id="clip0_1_2">
<rect width="1728" height="1117" fill="white"/>
</clipPath>
</defs>
</svg>
