<svg width="160" height="42" viewBox="0 0 160 42" fill="none" xmlns="http://www.w3.org/2000/svg">
<g id="delteklogosvgwhite">
<path id="Vector" d="M152.167 8.00751H143.816C137.338 15.2591 131.543 22.8579 131.543 22.8579V22.8846H131.476V0.0614624H125.079V40.3927H131.476V25.5422H131.543C131.543 25.5422 137.352 33.1411 143.816 40.3927H152.167C144.672 31.9926 139.707 25.7826 138.449 24.2068C139.694 22.6309 144.672 16.421 152.167 8.02086V8.00751Z" fill="white"/>
<path id="Vector_2" d="M23.3212 23.2452C23.3212 32.126 18.851 34.8905 12.6275 34.8905H6.88585V5.63032H10.4593C19.4667 5.63032 23.3346 8.76868 23.3346 17.4626V23.2452H23.3212ZM30.147 20.4674C30.147 6.95244 26.0917 0.141541 10.9144 0.141541H0.274231V40.3926H12.855C27.3765 40.3926 30.147 33.328 30.147 20.4807" fill="white"/>
<path id="Vector_3" d="M70.2985 0.0480957L63.7136 0.0614507L63.7404 0.0480957V40.3793H70.2851V0.0614507L70.2985 0.0480957Z" fill="white"/>
<path id="Vector_4" d="M47.2515 13.8702C42.3531 13.8702 40.2919 18.0903 40.2919 22.2035H53.1137C53.1137 18.0369 52.2705 13.8702 47.2515 13.8702ZM59.1632 26.7174H40.3589V27.679C40.3589 31.7254 42.3664 35.7052 48.2286 35.7052C51.6816 35.7052 54.7599 34.797 57.4233 33.4749L57.7846 38.6699C55.4291 40.0454 51.802 40.9669 47.5594 40.9669C36.6114 40.9669 33.8945 34.57 33.8945 25.1549C33.8945 15.7399 37.6955 9.22278 47.4389 9.22278C54.693 9.22278 59.2836 13.0155 59.2836 23.2853C59.2836 23.953 59.1632 26.7308 59.1632 26.7308" fill="white"/>
<path id="Vector_5" d="M86.6402 41.0203C81.1394 41.0203 78.7838 38.1223 78.8374 32.8072L78.8909 15.3125H73.9523V10.0107H78.8909L78.9444 2.34509H85.4222L85.3687 10.0107H93.225V15.3125H85.3687L85.3152 31.7789C85.3152 34.4364 86.3323 35.7051 88.7548 35.7051C90.6285 35.7051 92.8636 34.8638 92.8636 34.8638L93.225 39.6848C93.225 39.6848 90.2003 41.0203 86.6402 41.0203Z" fill="white"/>
<path id="Vector_6" d="M108.897 14.0973C103.999 14.0973 101.938 18.3173 101.938 22.4306H114.746C114.746 18.2639 113.903 14.0973 108.884 14.0973M120.796 26.9445H101.991V27.906C101.991 31.9525 103.986 35.9322 109.848 35.9322C113.301 35.9322 116.379 35.0241 119.042 33.702L119.417 38.8969C117.062 40.2858 113.421 41.1806 109.192 41.1806C98.244 41.1806 95.527 34.7837 95.527 25.3686C95.527 15.9536 99.3281 9.43646 109.071 9.43646C116.326 9.43646 120.916 13.2426 120.916 23.499C120.916 24.1667 120.796 26.9445 120.796 26.9445Z" fill="white"/>
<path id="Vector_7" d="M155.032 38.0155C155.032 36.7201 155.968 35.7719 157.253 35.7719C158.538 35.7719 159.448 36.7067 159.448 38.0021C159.448 39.2976 158.511 40.2591 157.24 40.2591C155.968 40.2591 155.032 39.3243 155.032 38.0289V38.0155ZM159.06 38.0021C159.06 36.9204 158.297 36.1191 157.24 36.1191C156.183 36.1191 155.433 36.8803 155.433 38.0021C155.433 39.1239 156.196 39.8852 157.253 39.8852C158.311 39.8852 159.06 39.1239 159.06 38.0021ZM157.628 38.9904L157.119 38.3227H156.852V38.937C156.852 39.0839 156.785 39.164 156.638 39.164H156.557C156.423 39.164 156.343 39.0572 156.343 38.8836V37.1074C156.343 36.9204 156.45 36.8269 156.611 36.8269H157.32C157.922 36.8269 158.244 37.0673 158.244 37.5614C158.244 37.9354 158.016 38.1891 157.615 38.2559L158.204 38.977C158.204 38.977 158.096 39.164 157.922 39.164C157.829 39.164 157.695 39.1106 157.601 38.977L157.628 38.9904ZM156.852 37.9354H157.32C157.601 37.9354 157.748 37.8018 157.748 37.5882C157.748 37.3478 157.588 37.2409 157.293 37.2409H156.838V37.9354H156.852Z" fill="white"/>
</g>
</svg>
