<svg width="345" height="345" viewBox="0 0 345 345" fill="none" xmlns="http://www.w3.org/2000/svg">
<path d="M44.5643 144.469H69.8624V119.171H44.5643V144.469ZM75.0374 154.819H39.3893C36.5323 154.819 34.2129 152.501 34.2129 149.644V113.996C34.2129 111.139 36.5323 108.821 39.3893 108.821H75.0374C77.8944 108.821 80.2124 111.139 80.2124 113.996V149.644C80.2124 152.501 77.8944 154.819 75.0374 154.819Z" fill="white"/>
<path d="M159.812 73.5982H185.111V48.3H159.812V73.5982ZM190.286 83.9482H154.637C151.78 83.9482 149.462 81.6301 149.462 78.7732V43.125C149.462 40.2681 151.78 37.95 154.637 37.95H190.286C193.143 37.95 195.461 40.2681 195.461 43.125V78.7732C195.461 81.6301 193.143 83.9482 190.286 83.9482Z" fill="white"/>
<path d="M159.812 296.7H185.111V271.402H159.812V296.7ZM190.286 307.05H154.637C151.78 307.05 149.462 304.732 149.462 301.875V266.227C149.462 263.37 151.78 261.052 154.637 261.052H190.286C193.143 261.052 195.461 263.37 195.461 266.227V301.875C195.461 304.732 193.143 307.05 190.286 307.05Z" fill="white"/>
<path d="M44.5643 225.829H69.8624V200.531H44.5643V225.829ZM75.0374 236.179H39.3893C36.5323 236.179 34.2129 233.861 34.2129 231.004V195.356C34.2129 192.499 36.5323 190.181 39.3893 190.181H75.0374C77.8944 190.181 80.2124 192.499 80.2124 195.356V231.004C80.2124 233.861 77.8944 236.179 75.0374 236.179Z" fill="white"/>
<path d="M275.138 144.469H300.436V119.171H275.138V144.469ZM305.611 154.819H269.963C267.106 154.819 264.788 152.501 264.788 149.644V113.996C264.788 111.139 267.106 108.821 269.963 108.821H305.611C308.468 108.821 310.786 111.139 310.786 113.996V149.644C310.786 152.501 308.468 154.819 305.611 154.819Z" fill="white"/>
<path d="M275.138 225.829H300.436V200.531H275.138V225.829ZM305.611 236.179H269.963C267.106 236.179 264.788 233.861 264.788 231.004V195.356C264.788 192.499 267.106 190.181 269.963 190.181H305.611C308.468 190.181 310.786 192.499 310.786 195.356V231.004C310.786 233.861 308.468 236.179 305.611 236.179Z" fill="white"/>
<path d="M123.382 201.03L172.116 229.573L221.204 201.646L221.557 145.166L172.824 116.619L123.733 144.55L123.382 201.03ZM172.078 240.725C171.175 240.725 170.27 240.489 169.464 240.013L115.571 208.449C113.974 207.515 113.001 205.8 113.01 203.95L113.401 141.497C113.412 139.651 114.409 137.946 116.016 137.032L170.299 106.144C171.911 105.234 173.886 105.243 175.474 106.179L229.368 137.748C230.965 138.681 231.938 140.395 231.929 142.245L231.534 204.698C231.525 206.546 230.526 208.249 228.92 209.163L174.639 240.047C173.844 240.5 172.962 240.725 172.078 240.725Z" fill="white"/>
<path d="M172.507 177.426C171.644 177.426 170.782 177.21 170.004 176.779L98.1025 137.046H92.6042C89.7473 137.046 87.4292 134.729 87.4292 131.871C87.4292 129.014 89.7473 126.696 92.6042 126.696H99.4369C100.313 126.696 101.173 126.92 101.941 127.343L172.509 166.341L202.768 149.68C205.266 148.31 208.418 149.213 209.799 151.719C211.178 154.222 210.265 157.37 207.761 158.75L175.004 176.786C174.225 177.213 173.367 177.426 172.507 177.426Z" fill="white"/>
<path d="M226.759 147.558C224.937 147.558 223.165 146.591 222.222 144.88C220.845 142.377 221.757 139.229 224.259 137.849L243.353 127.337C244.119 126.92 244.977 126.696 245.849 126.696H266.482C269.339 126.696 271.657 129.014 271.657 131.871C271.657 134.729 269.339 137.046 266.482 137.046H247.181L229.254 146.919C228.462 147.353 227.606 147.558 226.759 147.558Z" fill="white"/>
<path d="M99.4366 218.219H78.8039C75.947 218.219 73.6289 215.901 73.6289 213.044C73.6289 210.187 75.947 207.869 78.8039 207.869H98.1022L116.41 197.751C118.901 196.374 122.057 197.274 123.442 199.776C124.826 202.277 123.917 205.426 121.417 206.807L101.94 217.573C101.175 217.997 100.313 218.219 99.4366 218.219Z" fill="white"/>
<path d="M252.681 218.219H245.849C244.977 218.219 244.119 217.997 243.353 217.579L224.156 207.009C221.653 205.628 220.739 202.481 222.117 199.979C223.498 197.476 226.653 196.569 229.149 197.94L247.18 207.869H252.681C255.538 207.869 257.856 210.187 257.856 213.044C257.856 215.901 255.538 218.219 252.681 218.219Z" fill="white"/>
<path d="M172.46 251.704C169.603 251.704 167.285 249.386 167.285 246.529V237.764C167.285 234.907 169.603 232.589 172.46 232.589C175.317 232.589 177.635 234.907 177.635 237.764V246.529C177.635 249.386 175.317 251.704 172.46 251.704Z" fill="white"/>
<path d="M172.469 214.358C169.613 214.358 167.294 212.04 167.294 209.183V173.282C167.294 170.424 169.613 168.107 172.469 168.107C175.326 168.107 177.644 170.424 177.644 173.282V209.183C177.644 212.04 175.326 214.358 172.469 214.358Z" fill="white"/>
<path d="M172.46 110.546C169.603 110.546 167.285 108.226 167.285 105.371V96.9612C167.285 94.1043 169.603 91.7862 172.46 91.7862C175.317 91.7862 177.635 94.1043 177.635 96.9612V105.371C177.635 108.226 175.317 110.546 172.46 110.546Z" fill="white"/>
</svg>
